Music_Cities1_branch_aa6f::
	tempo 232
	loopchannel 0, Music_Cities1_branch_aa79

Music_Cities1_Ch1::
	tempo 157

Music_Cities1_branch_aa79::
	volume 7, 7
	duty 2
	vibrato 18, 3, 4
	notetype 12, 10, 7
	octave 3
	F# 1
	rest 3
	F# 2
	rest 4
	F# 2
	rest 2
	F# 1
	rest 1
	F# 4
	rest 2
	octave 4
	D_ 2
	rest 2
	octave 3
	A_ 2
	rest 2
	F# 1
	rest 1
	F# 1
	rest 3
	F# 2
	rest 4
	F# 2
	rest 2
	G_ 1
	rest 1
	rest 4
	G_ 8
	rest 4

Music_Cities1_Ch1_branch_1::
	callchannel Music_Cities1_Ch1_branch_2
	rest 4
	callchannel Music_Cities1_Ch1_branch_2
	octave 4
	C_ 4
	callchannel Music_Cities1_Ch1_branch_3
	octave 4
	B_ 2
	G_ 2
	D_ 2
	octave 3
	B_ 2
	F# 2
	E_ 2
	F# 1
	rest 1
	A_ 1
	rest 3
	F# 2
	A_ 1
	rest 1
	octave 4
	C# 1
	rest 1
	rest 2
	octave 3
	A_ 1
	rest 1
	octave 4
	C# 1
	rest 1
	F# 1
	rest 1
	notetype 12, 8, 7
	octave 5
	F# 4
	F_ 4
	notetype 12, 10, 7
	octave 3
	G_ 6
	B_ 8
	octave 4
	E_ 2
	rest 2
	E_ 2
	octave 3
	B_ 4
	G_ 2
	F# 2
	E_ 4
	D_ 2
	octave 2
	A_ 2
	octave 3
	D_ 1
	rest 1
	F# 1
	rest 3
	D_ 2
	F# 1
	rest 1
	A_ 1
	rest 1
	rest 2
	F# 2
	A_ 1
	rest 1
	octave 4
	C_ 1
	rest 1
	D# 2
	C_ 2
	octave 3
	B_ 2
	A_ 2
	callchannel Music_Cities1_Ch1_branch_3
	octave 4
	A_ 2
	G_ 2
	D_ 2
	G_ 2
	octave 3
	F# 2
	E_ 2
	F# 1
	rest 1
	A_ 1
	rest 3
	F# 2
	A_ 1
	rest 1
	octave 4
	C_ 1
	rest 1
	rest 2
	E_ 2
	rest 2
	C_ 2
	rest 2
	octave 3
	A_ 2
	rest 2
	F# 2
	G_ 6
	B_ 1
	rest 1
	octave 4
	E_ 4
	F# 2
	G_ 6
	E_ 2
	rest 2
	octave 3
	G_ 2
	octave 4
	E_ 2
	rest 2
	F# 6
	D_ 4
	octave 3
	A_ 4
	F# 4
	G_ 1
	rest 3
	G_ 8
	A# 4
	loopchannel 0, Music_Cities1_Ch1_branch_1

Music_Cities1_Ch1_branch_2::
	octave 3
	A_ 1
	rest 3
	A_ 2
	rest 4
	A_ 2
	rest 2
	A_ 1
	rest 1
	octave 4
	C_ 4
	rest 2
	octave 3
	A_ 2
	rest 2
	octave 4
	C_ 2
	octave 3
	A_ 1
	rest 1
	octave 4
	C_ 1
	rest 1
	octave 3
	B_ 1
	rest 3
	G_ 2
	rest 4
	G_ 2
	rest 2
	octave 4
	D_ 2
	rest 2
	octave 3
	B_ 2
	rest 2
	G_ 1
	rest 1
	G_ 4
	rest 2
	B_ 1
	rest 1
	octave 4
	D_ 1
	rest 3
	D_ 2
	rest 4
	D_ 2
	rest 2
	D_ 1
	rest 1
	octave 3
	G_ 4
	rest 2
	octave 4
	C# 1
	rest 1
	E_ 1
	rest 1
	D_ 4
	C# 1
	rest 1
	octave 3
	A_ 1
	rest 3
	F# 2
	rest 4
	F# 2
	rest 2
	G_ 1
	rest 1
	rest 4
	G_ 8
	endchannel

Music_Cities1_Ch1_branch_3::
	octave 3
	B_ 2
	D_ 2
	G_ 1
	rest 1
	B_ 1
	rest 3
	G_ 2
	B_ 1
	rest 1
	octave 4
	D_ 1
	rest 1
	rest 2
	octave 3
	B_ 2
	octave 4
	D_ 1
	rest 1
	G_ 1
	rest 1
	endchannel


Music_Cities1_Ch2::
	vibrato 16, 4, 6
	duty 1
	notetype 12, 11, 7
	octave 2
	D_ 4
	rest 2
	A_ 1
	rest 1
	A_ 4
	rest 4
	D_ 4
	rest 2
	A_ 1
	rest 1
	A_ 1
	rest 1
	octave 3
	C# 4
	octave 2
	A_ 1
	rest 1
	D_ 4
	rest 2
	A_ 1
	rest 1
	A_ 4
	rest 2
	E_ 1
	rest 1
	rest 4
	E_ 8
	rest 4

Music_Cities1_Ch2_branch_1::
	callchannel Music_Cities1_Ch2_branch_2
	rest 4
	callchannel Music_Cities1_Ch2_branch_2
	octave 2
	F# 4
	callchannel Music_Cities1_Ch2_branch_3
	G_ 4
	rest 2
	octave 3
	D_ 1
	rest 1
	octave 2
	G_ 1
	rest 1
	octave 3
	D_ 4
	octave 2
	B_ 2
	callchannel Music_Cities1_Ch2_branch_4
	rest 2
	F# 2
	rest 2
	octave 3
	C# 1
	rest 1
	C# 4
	C_ 4
	callchannel Music_Cities1_Ch2_branch_5
	E_ 4
	rest 2
	B_ 1
	rest 1
	E_ 2
	B_ 2
	G_ 4
	D_ 4
	rest 2
	A_ 1
	rest 1
	A_ 4
	C_ 2
	C# 2
	rest 2
	D# 2
	A_ 1
	rest 1
	octave 3
	C_ 1
	rest 1
	D# 2
	C_ 2
	octave 2
	A_ 2
	F# 2
	callchannel Music_Cities1_Ch2_branch_3
	G_ 4
	rest 2
	B_ 1
	rest 1
	G_ 1
	rest 1
	B_ 4
	G_ 2
	callchannel Music_Cities1_Ch2_branch_4
	rest 2
	F# 2
	rest 2
	A_ 2
	rest 2
	octave 3
	C_ 2
	rest 2
	octave 2
	D# 2
	callchannel Music_Cities1_Ch2_branch_5
	E_ 4
	rest 2
	A# 1
	rest 1
	A# 4
	rest 2
	G_ 1
	rest 1
	D_ 4
	rest 2
	A_ 1
	rest 1
	A_ 4
	rest 2
	D_ 1
	rest 1
	E_ 1
	rest 3
	E_ 8
	octave 1
	A_ 4
	loopchannel 0, Music_Cities1_Ch2_branch_1

Music_Cities1_Ch2_branch_2::
	octave 2
	D_ 4
	rest 2
	A_ 1
	rest 1
	A_ 4
	rest 4
	D# 4
	rest 2
	A_ 1
	rest 1
	A_ 1
	rest 1
	octave 3
	C_ 4
	octave 2
	A_ 1
	rest 1
	E_ 4
	rest 2
	B_ 1
	rest 1
	B_ 4
	rest 4
	E_ 4
	rest 2
	B_ 1
	rest 1
	B_ 1
	rest 1
	octave 3
	D_ 4
	octave 2
	B_ 1
	rest 1
	G_ 4
	rest 2
	octave 3
	D_ 1
	rest 1
	D_ 4
	rest 4
	octave 2
	A_ 4
	rest 2
	octave 3
	E_ 1
	rest 1
	E_ 1
	rest 1
	G_ 4
	E_ 1
	rest 1
	octave 2
	D_ 4
	rest 2
	A_ 1
	rest 1
	A_ 4
	rest 2
	E_ 1
	rest 1
	rest 4
	E_ 8
	endchannel

Music_Cities1_Ch2_branch_3::
	G_ 4
	rest 2
	octave 3
	D_ 1
	rest 1
	D_ 4
	octave 2
	F_ 2
	F# 2
	endchannel

Music_Cities1_Ch2_branch_4::
	F# 4
	rest 2
	octave 3
	C# 1
	rest 1
	C# 4
	octave 2
	E_ 2
	F_ 2
	endchannel

Music_Cities1_Ch2_branch_5::
	octave 2
	E_ 4
	rest 2
	B_ 1
	rest 1
	B_ 4
	D_ 2
	D# 2
	endchannel

Music_Cities1_Ch3::
	vibrato 18, 2, 4
	notetype 12, 1, 3
	octave 4
	A_ 1
	rest 3
	A_ 2
	rest 4
	A_ 2
	rest 2
	A_ 1
	rest 1
	A_ 4
	rest 2
	octave 5
	F# 2
	rest 2
	C# 2
	rest 2
	octave 4
	A_ 1
	rest 1
	A_ 1
	rest 3
	A_ 2
	rest 4
	A_ 2
	rest 2
	octave 5
	D_ 1
	rest 1
	rest 4
	D_ 8
	F# 2
	G_ 2

Music_Cities1_Ch3_branch_1::
	notetype 12, 1, 3
	callchannel Music_Cities1_Ch3_branch_2
	octave 5
	F# 2
	G_ 2
	callchannel Music_Cities1_Ch3_branch_2
	E_ 4
	vibrato 24, 2, 5
	notetype 12, 2, 6
	B_ 12
	G_ 4
	octave 6
	D_ 8
	E_ 2
	D_ 2
	C# 2
	octave 5
	B_ 2
	A_ 12
	F# 4
	A_ 8
	A_ 4
	G# 4
	E_ 10
	E_ 2
	F# 2
	G_ 2
	rest 2
	G_ 2
	F# 4
	E_ 4
	G_ 4
	F# 12
	D_ 4
	A_ 4
	rest 4
	octave 6
	C_ 8
	octave 5
	B_ 12
	octave 6
	C# 2
	D_ 2
	E_ 2
	rest 2
	D_ 2
	rest 2
	C# 2
	rest 2
	octave 5
	B_ 2
	rest 2
	A_ 10
	A_ 2
	B_ 2
	octave 6
	C_ 2
	rest 2
	octave 5
	B_ 2
	rest 2
	A_ 2
	rest 2
	F# 2
	rest 2
	G_ 12
	G_ 2
	A_ 2
	A# 6
	A_ 2
	rest 2
	G_ 2
	A# 2
	rest 2
	A_ 14
	rest 4
	D_ 1
	rest 3
	D_ 8
	E_ 4
	loopchannel 0, Music_Cities1_Ch3_branch_1

Music_Cities1_Ch3_branch_2::
	octave 5
	A_ 2
	rest 2
	G_ 2
	rest 2
	F# 2
	rest 6
	rest 2
	F# 2
	G_ 2
	A_ 2
	rest 2
	A_ 2
	G_ 2
	F# 2
	G_ 2
	E_ 2
	octave 4
	B_ 2
	rest 4
	B_ 2
	rest 2
	octave 5
	G_ 2
	rest 2
	D_ 2
	rest 2
	octave 4
	B_ 1
	rest 1
	B_ 4
	octave 5
	E_ 2
	F# 2
	G_ 2
	rest 2
	F# 2
	rest 2
	E_ 2
	rest 6
	rest 2
	E_ 2
	F# 2
	G_ 2
	rest 2
	G_ 2
	F# 2
	E_ 2
	F# 2
	D_ 2
	octave 4
	A_ 2
	rest 4
	A_ 2
	rest 2
	octave 5
	D_ 1
	rest 1
	rest 4
	D_ 8
	endchannel

Music_Cities1_Ch4::
	dspeed 12
	endchannel
	callchannel Music_Cities1_Ch4_branch_2
	callchannel Music_Cities1_Ch4_branch_3

Music_Cities1_Ch4_branch_1::
	callchannel Music_Cities1_Ch4_branch_2
	callchannel Music_Cities1_Ch4_branch_2
	callchannel Music_Cities1_Ch4_branch_2
	callchannel Music_Cities1_Ch4_branch_3
	callchannel Music_Cities1_Ch4_branch_2
	callchannel Music_Cities1_Ch4_branch_2
	callchannel Music_Cities1_Ch4_branch_2
	callchannel Music_Cities1_Ch4_branch_3
	callchannel Music_Cities1_Ch4_branch_4
	callchannel Music_Cities1_Ch4_branch_5
	callchannel Music_Cities1_Ch4_branch_4
	callchannel Music_Cities1_Ch4_branch_4
	callchannel Music_Cities1_Ch4_branch_4
	callchannel Music_Cities1_Ch4_branch_5
	callchannel Music_Cities1_Ch4_branch_4
	callchannel Music_Cities1_Ch4_branch_4
	loopchannel 0, Music_Cities1_Ch4_branch_1

Music_Cities1_Ch4_branch_2::
	E_ 2
	E_ 2
	D_ 2
	E_ 4
	D_ 2
	E_ 2
	F# 2
	E_ 2
	E_ 2
	D_ 4
	E_ 2
	D_ 2
	E_ 2
	F# 2
	endchannel

Music_Cities1_Ch4_branch_3::
	E_ 2
	E_ 2
	D_ 2
	E_ 4
	D_ 2
	E_ 2
	F# 2
	E_ 2
	E_ 2
	F# 4
	D_ 2
	D_ 2
	A# 2
	A# 2
	endchannel

Music_Cities1_Ch4_branch_4::
	D# 2
	F# 2
	D_ 2
	D# 2
	D# 2
	F# 2
	D_ 4
	D# 2
	F# 2
	D_ 2
	D# 2
	D# 2
	F# 2
	D_ 2
	D# 2
	endchannel

Music_Cities1_Ch4_branch_5::
	D# 2
	F# 2
	D_ 2
	D# 2
	D# 2
	F# 2
	D_ 4
	D# 2
	F# 2
	D_ 2
	D# 2
	D# 2
	D_ 2
	D_ 2
	F# 2
	endchannel
