Music_DefeatedGymLeader_Ch1::
	tempo 116
	volume 7, 7
	vibrato 18, 3, 4
	duty 3
	notetype 12, 11, 7
	octave 4
	D_ 6
	octave 3
	A_ 1
	octave 4
	D_ 1
	F# 6
	D_ 1
	F# 1
	A_ 6
	F# 1
	A_ 1
	octave 5
	D_ 8

Music_DefeatedGymLeader_Ch1_branch_1::
	duty 1
	callchannel Music_DefeatedGymLeader_Ch1_branch_2
	octave 4
	C# 4
	E_ 4
	callchannel Music_DefeatedGymLeader_Ch1_branch_2
	F# 8
	loopchannel 2, Music_DefeatedGymLeader_Ch1_branch_1
	duty 2
	callchannel Music_DefeatedGymLeader_Ch1_branch_3
	A_ 4
	G_ 4
	F# 6
	D_ 1
	E_ 1
	F# 6
	E_ 2
	D_ 8
	C# 8
	duty 3
	callchannel Music_DefeatedGymLeader_Ch1_branch_3
	C# 4
	E_ 4
	G_ 6
	A_ 1
	G_ 1
	A_ 6
	G_ 2
	notetype 12, 8, 7
	F# 16
	loopchannel 0, Music_DefeatedGymLeader_Ch1_branch_1

Music_DefeatedGymLeader_Ch1_branch_2::
	notetype 12, 9, 1
	octave 3
	F# 2
	A_ 2
	octave 4
	D_ 2
	octave 3
	A_ 1
	F# 1
	E_ 2
	A_ 2
	octave 4
	C# 2
	octave 3
	A_ 1
	E_ 1
	D_ 2
	G_ 2
	B_ 2
	G_ 1
	D_ 1
	endchannel

Music_DefeatedGymLeader_Ch1_branch_3::
	notetype 12, 8, 7
	octave 3
	F# 14
	D_ 1
	F# 1
	A_ 8
	F# 4
	A_ 1
	G# 1
	F# 1
	A_ 1
	G# 14
	E_ 1
	G# 1
	B_ 8
	octave 4
	D_ 4
	E_ 1
	D_ 1
	E_ 1
	D_ 1
	C# 14
	octave 3
	A_ 1
	octave 4
	C# 1
	E_ 8
	endchannel


Music_DefeatedGymLeader_Ch2::
	vibrato 18, 3, 4
	duty 3
	notetype 12, 13, 7
	octave 4
	A_ 6
	F# 1
	A_ 1
	octave 5
	D_ 6
	octave 4
	A_ 1
	octave 5
	D_ 1
	F# 16

Music_DefeatedGymLeader_Ch2_branch_1::
	duty 3
	notetype 12, 10, 1
	callchannel Music_DefeatedGymLeader_Ch2_branch_2
	A_ 4
	A_ 4
	callchannel Music_DefeatedGymLeader_Ch2_branch_2
	D_ 6
	duty 2
	B_ 1
	octave 5
	C# 1
	callchannel Music_DefeatedGymLeader_Ch2_branch_2
	A_ 4
	A_ 4
	callchannel Music_DefeatedGymLeader_Ch2_branch_2
	D_ 8
	duty 3
	callchannel Music_DefeatedGymLeader_Ch2_branch_3
	F# 4
	E_ 4
	D_ 14
	octave 4
	B_ 2
	notetype 12, 10, 7
	A_ 16
	duty 2
	callchannel Music_DefeatedGymLeader_Ch2_branch_3
	octave 4
	A_ 4
	octave 5
	C# 4
	D_ 14
	E_ 2
	notetype 12, 10, 6
	D_ 12
	rest 2
	duty 3
	octave 4
	B_ 1
	octave 5
	C# 1
	loopchannel 0, Music_DefeatedGymLeader_Ch2_branch_1

Music_DefeatedGymLeader_Ch2_branch_2::
	octave 5
	D_ 2
	C# 2
	octave 4
	B_ 4
	octave 5
	C# 2
	octave 4
	B_ 2
	A_ 4
	B_ 2
	A_ 2
	G_ 2
	F# 2
	endchannel

Music_DefeatedGymLeader_Ch2_branch_3::
	notetype 12, 9, 8
	A_ 6
	F# 1
	A_ 1
	octave 5
	D_ 8
	D_ 16
	octave 4
	B_ 6
	G# 1
	B_ 1
	octave 5
	E_ 8
	E_ 16
	octave 4
	G_ 6
	E_ 1
	G_ 1
	octave 5
	C# 8
	C# 8
	endchannel


Music_DefeatedGymLeader_Ch3::
	notetype 12, 2, 6
	octave 3
	F# 16
	D_ 10
	octave 2
	A_ 2
	B_ 2
	octave 3
	C# 2

Music_DefeatedGymLeader_Ch3_branch_1::
	D_ 2
	rest 4
	octave 2
	A_ 2
	octave 3
	C# 2
	rest 4
	octave 2
	A_ 2
	B_ 2
	rest 4
	G_ 2
	A_ 2
	rest 2
	octave 3
	C# 4
	D_ 2
	rest 4
	octave 2
	A_ 2
	octave 3
	C# 2
	rest 4
	octave 2
	A_ 2
	B_ 2
	rest 4
	G_ 2
	octave 3
	D_ 2
	rest 6
	loopchannel 2, Music_DefeatedGymLeader_Ch3_branch_1
	callchannel Music_DefeatedGymLeader_Ch3_branch_2
	octave 3
	D_ 2
	rest 2
	D_ 2
	octave 4
	D_ 2
	rest 2
	octave 3
	D_ 2
	F# 2
	D_ 2
	A_ 2
	rest 2
	octave 2
	A_ 2
	octave 3
	E_ 2
	rest 2
	octave 2
	A_ 2
	octave 3
	C# 2
	octave 2
	A_ 2
	callchannel Music_DefeatedGymLeader_Ch3_branch_2
	octave 3
	D_ 2
	rest 2
	G_ 2
	octave 4
	D_ 2
	rest 2
	octave 3
	D_ 2
	G_ 2
	E_ 2
	D_ 2
	rest 2
	D_ 2
	A_ 2
	rest 2
	octave 2
	A_ 2
	B_ 2
	octave 3
	C# 2
	loopchannel 0, Music_DefeatedGymLeader_Ch3_branch_1

Music_DefeatedGymLeader_Ch3_branch_2::
	octave 3
	D_ 2
	rest 2
	D_ 2
	octave 4
	D_ 2
	rest 2
	octave 3
	D_ 2
	F# 2
	D_ 2
	A_ 2
	rest 2
	D_ 2
	F# 2
	rest 2
	octave 2
	A_ 2
	octave 3
	D_ 2
	octave 2
	A_ 2
	octave 3
	E_ 2
	rest 2
	E_ 2
	octave 4
	E_ 2
	rest 2
	octave 3
	E_ 2
	G# 2
	E_ 2
	B_ 2
	rest 2
	E_ 2
	G# 2
	rest 2
	octave 2
	B_ 2
	octave 3
	E_ 2
	octave 2
	B_ 2
	A_ 2
	rest 2
	A_ 2
	octave 3
	A_ 2
	rest 2
	octave 2
	A_ 2
	octave 3
	C# 2
	octave 2
	A_ 2
	octave 3
	A_ 2
	rest 2
	octave 2
	A_ 2
	octave 3
	E_ 2
	rest 2
	octave 2
	A_ 2
	octave 3
	C# 2
	octave 2
	A_ 2
	endchannel
