Music_Gym_Ch1::
	tempo 156
	volume 7, 7
	vibrato 18, 2, 4
	duty 1
	notetype 12, 11, 7

Music_Gym_Ch1_branch_1::
	octave 4
	F# 2
	octave 2
	A_ 1
	A_ 1
	A_ 1
	rest 3
	octave 4
	E_ 2
	octave 2
	G_ 1
	G_ 1
	G_ 1
	rest 3
	octave 4
	D_ 2
	octave 2
	D_ 1
	D_ 1
	D_ 1
	rest 1
	octave 3
	D_ 1
	D_ 1
	B_ 1
	G_ 1
	D_ 1
	B_ 1
	octave 4
	C# 1
	octave 3
	A_ 1
	E_ 1
	octave 4
	E_ 1
	octave 3
	A_ 12
	F# 2
	A_ 2
	G_ 1
	rest 2
	E_ 1
	E_ 2
	C_ 2
	octave 4
	C_ 2
	octave 3
	B_ 2
	A_ 2
	G_ 2
	F# 8
	A_ 4
	F# 2
	A_ 2
	E_ 1
	rest 1
	E_ 1
	F# 1
	G_ 4
	octave 4
	C_ 2
	octave 3
	B_ 2
	A_ 2
	octave 4
	C_ 2
	D_ 6
	octave 3
	A_ 2
	F# 2
	E_ 2
	G_ 2
	A_ 2
	B_ 1
	rest 2
	G_ 1
	G_ 4
	octave 4
	E_ 1
	rest 2
	C_ 1
	C_ 2
	octave 3
	B_ 1
	A# 1
	A_ 12
	F# 2
	A_ 2
	octave 4
	C_ 2
	octave 3
	G_ 1
	octave 4
	C_ 1
	E_ 2
	C_ 2
	E_ 2
	C_ 1
	E_ 1
	G_ 4
	D_ 6
	octave 3
	A_ 1
	rest 3
	A_ 1
	rest 1
	A_ 1
	octave 4
	F# 3
	G_ 4
	F# 4
	E_ 4
	C_ 4
	D_ 1
	rest 1
	D_ 1
	E_ 1
	rest 2
	octave 3
	B_ 4
	F# 2
	D_ 2
	F# 2
	A# 1
	A_ 1
	G_ 1
	F_ 1
	octave 4
	D_ 4
	C_ 1
	octave 3
	A# 1
	A_ 1
	G_ 1
	octave 4
	E_ 4
	F# 6
	octave 3
	A_ 1
	rest 3
	A_ 1
	rest 1
	A_ 1
	octave 4
	F# 3
	A_ 4
	G_ 4
	F# 4
	E_ 4
	D_ 1
	octave 3
	B_ 1
	F# 1
	octave 4
	E_ 1
	F# 4
	E_ 1
	C_ 1
	octave 3
	G_ 1
	octave 4
	F# 1
	G_ 4
	A_ 1
	G_ 1
	F# 1
	E_ 1
	A_ 4
	octave 5
	D_ 4
	octave 4
	A_ 1
	G_ 1
	F# 1
	E_ 1
	loopchannel 0, Music_Gym_Ch1_branch_1

Music_Gym_Ch2::
	duty 1

Music_Gym_Ch2_branch_1::
	notetype 12, 12, 3
	octave 2
	D_ 2
	octave 1
	D_ 1
	D_ 1
	D_ 2
	A_ 1
	octave 2
	F# 1
	C_ 2
	octave 1
	C_ 1
	C_ 1
	C_ 2
	octave 2
	G_ 1
	E_ 1
	octave 1
	G_ 2
	octave 1
	G_ 1
	G_ 1
	G_ 2
	octave 1
	G_ 1
	G_ 1
	A_ 4
	octave 2
	A_ 2
	octave 3
	C_ 1
	C# 1
	callchannel Music_Gym_Ch2_branch_2
	octave 3
	E_ 2
	C_ 1
	C# 1
	callchannel Music_Gym_Ch2_branch_2
	octave 3
	C_ 1
	E_ 1
	G_ 1
	octave 4
	C_ 1
	notetype 12, 13, 2
	callchannel Music_Gym_Ch2_branch_3
	octave 1
	F# 1
	B_ 1
	F# 2
	octave 2
	F# 2
	octave 1
	B_ 2
	A# 4
	A# 2
	F_ 1
	F_ 1
	G_ 1
	octave 2
	C_ 1
	octave 1
	G_ 2
	octave 2
	G_ 2
	E_ 2
	callchannel Music_Gym_Ch2_branch_3
	octave 1
	G_ 1
	octave 2
	C_ 1
	octave 1
	G_ 2
	octave 2
	E_ 2
	C_ 2
	D_ 4
	D_ 2
	octave 1
	A_ 1
	A_ 1
	A_ 1
	octave 2
	D_ 1
	octave 1
	A_ 2
	octave 2
	F# 2
	D_ 2
	loopchannel 0, Music_Gym_Ch2_branch_1

Music_Gym_Ch2_branch_2::
	octave 3
	D_ 3
	octave 2
	D_ 3
	D_ 2
	D_ 1
	D_ 1
	D_ 2
	octave 3
	D_ 2
	octave 2
	A_ 2
	octave 3
	C_ 3
	octave 2
	C_ 3
	C_ 2
	C_ 1
	C_ 1
	C_ 2
	octave 3
	E_ 2
	C_ 1
	C# 1
	D_ 3
	octave 2
	D_ 3
	D_ 2
	D_ 1
	D_ 1
	D_ 2
	octave 3
	D_ 2
	octave 2
	A_ 2
	octave 3
	C_ 3
	octave 2
	C_ 3
	C_ 2
	C_ 1
	C_ 1
	C_ 2
	endchannel

Music_Gym_Ch2_branch_3::
	octave 2
	D_ 4
	D_ 2
	octave 1
	A_ 1
	A_ 1
	A_ 1
	octave 2
	D_ 1
	octave 1
	A_ 2
	octave 2
	A_ 2
	D_ 2
	C_ 4
	C_ 2
	octave 1
	G_ 1
	G_ 1
	G_ 1
	octave 2
	C_ 1
	octave 1
	G_ 2
	octave 2
	G_ 2
	C_ 2
	octave 1
	B_ 2
	rest 2
	B_ 2
	F# 1
	F# 1
	endchannel

Music_Gym_Ch3::
	vibrato 20, 2, 3

Music_Gym_Ch3_branch_1::
	notetype 12, 1, 4
	octave 6
	D_ 2
	octave 4
	D_ 1
	D_ 1
	D_ 1
	rest 1
	octave 5
	A_ 1
	octave 6
	D_ 1
	C_ 2
	octave 4
	C_ 1
	C_ 1
	C_ 1
	rest 1
	octave 5
	A_ 1
	octave 6
	C_ 1
	octave 5
	B_ 2
	octave 3
	G_ 1
	G_ 1
	G_ 1
	rest 1
	octave 5
	B_ 1
	B_ 1
	B_ 4
	octave 6
	C# 4
	octave 5
	D_ 12
	octave 4
	A_ 2
	octave 5
	D_ 2
	E_ 1
	rest 2
	C_ 1
	C_ 4
	G_ 4
	E_ 4
	D_ 12
	octave 4
	A_ 2
	octave 5
	D_ 2
	C_ 1
	rest 1
	C_ 1
	D_ 1
	E_ 8
	rest 4
	F# 12
	E_ 2
	F# 2
	G_ 1
	rest 2
	E_ 1
	E_ 4
	octave 6
	C_ 1
	rest 2
	octave 5
	G_ 1
	G_ 4
	F# 12
	E_ 2
	F# 2
	G_ 2
	E_ 1
	G_ 1
	octave 6
	C_ 8
	octave 5
	B_ 4
	notetype 12, 1, 3
	callchannel Music_Gym_Ch3_branch_2
	rest 2
	A_ 2
	octave 6
	D_ 2
	octave 5
	A_ 2
	octave 6
	C_ 4
	octave 5
	A# 4
	A_ 4
	G_ 4
	callchannel Music_Gym_Ch3_branch_2
	A_ 1
	rest 1
	A_ 1
	B_ 1
	octave 6
	C_ 4
	D_ 1
	rest 1
	D_ 1
	E_ 1
	F# 8
	E_ 4
	loopchannel 0, Music_Gym_Ch3_branch_1

Music_Gym_Ch3_branch_2::
	octave 5
	A_ 6
	octave 6
	D_ 6
	octave 5
	A_ 4
	octave 6
	C_ 4
	octave 5
	B_ 4
	A_ 4
	G_ 4
	F# 1
	rest 1
	F# 1
	G_ 1
	A_ 4
	endchannel
