Music_GymLeaderBattle_Ch1::
	tempo 101
	volume 7, 7
	duty 3
	vibrato 18, 1, 5
	notetype 12, 11, 2
	octave 3
	A# 1
	A_ 1
	G# 1
	G_ 1
	G# 1
	G_ 1
	F# 1
	G_ 1
	F# 1
	F_ 1
	F# 1
	F_ 1
	E_ 1
	F_ 1
	E_ 1
	D# 1
	E_ 1
	D# 1
	D_ 1
	D# 1
	D_ 1
	C# 1
	D_ 1
	C# 1
	C_ 1
	C# 1
	C_ 1
	octave 2
	B_ 1
	octave 3
	C_ 1
	octave 2
	B_ 1
	A# 1
	B_ 1
	A# 2
	A# 6
	A# 2
	A# 6
	A# 2
	A# 8
	notetype 12, 11, 7
	B_ 2
	notetype 12, 11, 2
	A# 2
	A# 6
	A# 2
	A# 6
	A# 2
	A# 8
	notetype 12, 11, 7
	octave 3
	E_ 2
	notetype 12, 11, 2
	octave 2
	A# 2
	A# 6
	A# 2
	A# 6
	A# 2
	A# 8
	notetype 12, 11, 7
	B_ 2
	notetype 12, 11, 2
	A# 2
	A# 6
	A# 2
	A# 6
	A# 2
	notetype 12, 11, 4
	octave 3
	E_ 4
	E_ 4
	E_ 2

Music_GymLeaderBattle_Ch1_branch_1::
	callchannel Music_GymLeaderBattle_Ch1_branch_2
	octave 2
	A# 2
	notetype 12, 11, 7
	G# 8
	B_ 8
	octave 3
	D# 10
	E_ 6
	callchannel Music_GymLeaderBattle_Ch1_branch_2
	D# 2
	notetype 12, 11, 7
	C# 8
	octave 2
	B_ 8
	G# 10
	octave 3
	E_ 6
	notetype 12, 11, 2
	D# 2
	D# 2
	G_ 1
	E_ 1
	D# 1
	G_ 1
	D# 2
	D# 2
	A# 1
	G# 1
	E_ 1
	A# 1
	D# 2
	D# 2
	B_ 1
	A# 1
	G# 1
	B_ 1
	D# 2
	notetype 12, 11, 7
	E_ 2
	notetype 12, 11, 2
	D# 2
	D# 2
	G_ 1
	E_ 1
	D# 1
	G_ 1
	D# 2
	D# 2
	A# 1
	G# 1
	E_ 1
	A# 1
	D# 2
	D# 2
	B_ 1
	A# 1
	G# 1
	B_ 1
	G# 2
	notetype 12, 11, 5
	B_ 2
	D# 2
	C# 2
	octave 2
	A# 4
	D# 2
	G# 2
	B_ 2
	octave 3
	E_ 2
	D# 4
	C# 2
	octave 2
	A# 2
	A# 2
	D# 2
	A# 2
	octave 3
	C# 2
	notetype 12, 11, 7
	octave 2
	B_ 8
	A# 8
	G# 10
	B_ 6
	notetype 12, 11, 5
	octave 3
	D# 2
	C# 2
	octave 2
	A# 4
	D# 2
	G# 2
	B_ 2
	octave 3
	E_ 2
	D# 4
	C# 2
	octave 2
	A# 2
	A# 2
	G# 2
	A# 2
	octave 3
	C# 2
	notetype 12, 11, 7
	E_ 8
	F# 8
	G_ 16
	notetype 12, 11, 2
	octave 2
	G# 2
	G# 2
	notetype 12, 11, 7
	octave 3
	C# 12
	notetype 12, 11, 2
	G# 2
	F_ 4
	notetype 12, 11, 5
	octave 2
	F_ 4
	G_ 2
	G# 2
	A# 2
	notetype 12, 11, 2
	A# 2
	A# 2
	notetype 12, 11, 7
	octave 3
	D# 12
	notetype 12, 11, 2
	A# 2
	G_ 4
	notetype 12, 11, 7
	octave 4
	D# 6
	notetype 12, 4, 12
	octave 3
	D_ 4
	loopchannel 0, Music_GymLeaderBattle_Ch1_branch_1

Music_GymLeaderBattle_Ch1_branch_2::
	notetype 12, 11, 5
	D# 2
	octave 2
	A# 2
	octave 3
	D# 2
	E_ 4
	D# 2
	C# 2
	octave 2
	A# 2
	D# 2
	G# 2
	A# 2
	octave 3
	D# 2
	E_ 2
	D# 2
	C# 2
	endchannel


Music_GymLeaderBattle_Ch2::
	duty 3
	vibrato 8, 3, 6
	notetype 12, 12, 2

Music_GymLeaderBattle_Ch2_branch_1::
	octave 4
	A# 1
	G# 1
	A# 1
	octave 5
	D# 1
	loopchannel 8, Music_GymLeaderBattle_Ch2_branch_1
	octave 3

Music_GymLeaderBattle_Ch2_branch_2::
	notetype 12, 12, 2
	D# 2
	D# 2
	F# 1
	E_ 1
	D# 1
	F# 1
	D# 2
	D# 2
	A# 1
	G# 1
	F# 1
	A# 1
	D# 2
	D# 2
	B_ 1
	A# 1
	G# 1
	B_ 1
	D_ 2
	notetype 12, 12, 7
	E_ 2
	notetype 12, 12, 2
	D# 2
	D# 2
	F# 1
	E_ 1
	D# 1
	F# 1
	D# 2
	D# 2
	A# 1
	G# 1
	F# 1
	A# 1
	D# 2
	D# 2
	B_ 1
	A# 1
	G# 1
	B_ 1
	G# 2
	notetype 12, 12, 7
	B_ 2
	notetype 12, 12, 2
	octave 4
	loopchannel 2, Music_GymLeaderBattle_Ch2_branch_2

Music_GymLeaderBattle_Ch2_branch_3::
	callchannel Music_GymLeaderBattle_Ch2_branch_4
	E_ 8
	G# 8
	B_ 10
	G# 6
	callchannel Music_GymLeaderBattle_Ch2_branch_4
	E_ 8
	G# 8
	B_ 10
	octave 4
	E_ 6
	D# 8
	notetype 12, 11, 7
	D# 8
	notetype 12, 10, 2
	rest 6
	octave 5
	E_ 4
	E_ 4
	E_ 2
	notetype 12, 10, 0
	D# 8
	notetype 12, 10, 7
	D# 8
	rest 12
	notetype 12, 12, 5
	octave 3
	A# 4
	B_ 4
	G# 4
	A# 4
	B_ 4
	G# 4
	E_ 4
	notetype 12, 11, 0
	D# 8
	D# 16
	notetype 12, 11, 7
	D# 12
	notetype 12, 12, 5
	A# 4
	B_ 4
	G# 4
	A# 4
	B_ 4
	G# 4
	B_ 4
	notetype 12, 11, 0
	A# 8
	notetype 12, 11, 7
	A# 8
	notetype 12, 11, 0
	octave 4
	D# 8
	notetype 12, 11, 7
	D# 8
	notetype 12, 12, 2
	octave 3
	C# 2
	C# 2
	notetype 12, 12, 7
	F_ 8
	notetype 12, 12, 2
	octave 4
	C# 4
	F_ 2
	C# 4
	notetype 12, 12, 7
	G# 4
	G_ 2
	F_ 2
	D# 2
	notetype 12, 12, 2
	octave 3
	D# 2
	D# 2
	notetype 12, 12, 7
	G_ 8
	notetype 12, 12, 2
	octave 4
	D# 4
	G_ 2
	D# 4
	notetype 12, 12, 7
	A# 6
	octave 3
	A_ 4
	loopchannel 0, Music_GymLeaderBattle_Ch2_branch_3

Music_GymLeaderBattle_Ch2_branch_4::
	duty 2
	notetype 12, 13, 1
	octave 3
	A# 2
	notetype 12, 10, 2
	A# 2
	notetype 12, 13, 1
	G# 2
	notetype 12, 10, 2
	G# 2
	notetype 12, 13, 1
	A# 2
	notetype 12, 10, 2
	A# 2
	notetype 12, 12, 5
	B_ 2
	octave 4
	C# 2
	C# 2
	octave 3
	B_ 4
	A# 2
	G# 2
	F# 2
	G# 2
	A# 2
	duty 3
	notetype 12, 11, 0
	endchannel


Music_GymLeaderBattle_Ch3::
	notetype 12, 1, 8
	octave 2
	E_ 1
	rest 1

Music_GymLeaderBattle_Ch3_branch_1::
	B_ 3
	rest 1
	loopchannel 6, Music_GymLeaderBattle_Ch3_branch_1
	B_ 2
	G# 2
	B_ 2

Music_GymLeaderBattle_Ch3_branch_2::
	D# 1
	rest 1
	D# 1
	rest 1
	F# 4
	D# 1
	rest 1
	D# 1
	rest 1
	A# 4
	D# 1
	rest 1
	D# 1
	rest 1
	B_ 4
	D_ 1
	rest 1
	F_ 2
	D# 1
	rest 1
	D# 1
	rest 1
	F# 4
	D# 1
	rest 1
	D# 1
	rest 1
	A# 4
	D# 1
	rest 1
	D# 1
	rest 1
	B_ 4
	D# 1
	rest 1
	E_ 2
	loopchannel 2, Music_GymLeaderBattle_Ch3_branch_2

Music_GymLeaderBattle_Ch3_branch_3::
	octave 2
	D# 2
	A# 2
	loopchannel 8, Music_GymLeaderBattle_Ch3_branch_3

Music_GymLeaderBattle_Ch3_branch_4::
	E_ 2
	B_ 2
	loopchannel 4, Music_GymLeaderBattle_Ch3_branch_4
	octave 1
	B_ 2
	octave 2
	E_ 2
	octave 1
	B_ 2
	octave 2
	E_ 4
	B_ 2
	octave 3
	E_ 2
	octave 2
	B_ 2

Music_GymLeaderBattle_Ch3_branch_5::
	octave 2
	F# 2
	octave 3
	C# 2
	loopchannel 8, Music_GymLeaderBattle_Ch3_branch_5

Music_GymLeaderBattle_Ch3_branch_6::
	octave 2
	E_ 2
	B_ 2
	loopchannel 7, Music_GymLeaderBattle_Ch3_branch_6
	octave 3
	E_ 2
	octave 2
	B_ 2

Music_GymLeaderBattle_Ch3_branch_7::
	D# 1
	rest 1
	D# 1
	rest 1
	A# 4
	D# 1
	rest 1
	D# 1
	rest 1
	B_ 4
	D# 1
	rest 1
	D# 1
	rest 1
	A# 4
	D# 1
	rest 1
	E_ 2
	loopchannel 2, Music_GymLeaderBattle_Ch3_branch_7

Music_GymLeaderBattle_Ch3_branch_8::
	D# 2
	A# 2
	loopchannel 7, Music_GymLeaderBattle_Ch3_branch_8
	octave 3
	C# 2
	octave 2
	A# 2
	E_ 2
	B_ 2
	octave 3
	E_ 2
	octave 2
	E_ 2
	B_ 2
	octave 3
	E_ 2

Music_GymLeaderBattle_Ch3_branch_9::
	octave 2
	E_ 2
	B_ 2
	loopchannel 5, Music_GymLeaderBattle_Ch3_branch_9

Music_GymLeaderBattle_Ch3_branch_10::
	octave 2
	F# 2
	octave 3
	C# 2
	loopchannel 7, Music_GymLeaderBattle_Ch3_branch_10
	octave 2
	A# 2
	octave 3
	C# 2
	octave 2
	E_ 2
	A# 2
	octave 3
	E_ 2
	F# 2
	G# 2
	F# 2
	E_ 2
	C# 2

Music_GymLeaderBattle_Ch3_branch_11::
	octave 2
	D# 2
	A# 2
	loopchannel 4, Music_GymLeaderBattle_Ch3_branch_11

Music_GymLeaderBattle_Ch3_branch_12::
	C# 2
	G# 2
	loopchannel 8, Music_GymLeaderBattle_Ch3_branch_12

Music_GymLeaderBattle_Ch3_branch_13::
	D# 2
	A# 2
	loopchannel 4, Music_GymLeaderBattle_Ch3_branch_13
	octave 3
	D# 2
	octave 2
	A# 2
	D# 2
	D_ 2
	D_ 2
	A# 2
	octave 3
	D# 2
	F_ 2
	loopchannel 0, Music_GymLeaderBattle_Ch3_branch_3
