Music_PalletTown_Ch1::
	tempo 188
	volume 7, 7
	vibrato 18, 2, 4

Music_PalletTown_Ch1_branch_1::
	duty 2
	notetype 12, 7, 8
	octave 3
	B_ 12
	A_ 1
	D_ 1
	F# 1
	A_ 1
	B_ 12
	D# 1
	G_ 1
	B_ 1
	octave 4
	D# 1
	E_ 4
	D_ 4
	C_ 4
	octave 3
	A_ 4
	notetype 12, 7, 7
	G_ 8
	notetype 12, 7, 8
	F# 4
	A_ 4
	B_ 12
	A_ 1
	D_ 1
	F# 1
	A_ 1
	G_ 2
	B_ 2
	octave 4
	E_ 2
	G_ 4
	F# 2
	G_ 2
	A_ 2
	E_ 2
	D_ 2
	C_ 2
	E_ 2
	F# 2
	E_ 2
	D_ 2
	C_ 2
	octave 3
	B_ 8
	notetype 12, 7, 7
	B_ 8

Music_PalletTown_Ch1_branch_2::
	duty 3
	notetype 12, 9, 2
	G_ 2
	E_ 2
	G_ 2
	E_ 2
	G_ 2
	D# 2
	G_ 2
	D# 2
	notetype 12, 5, 15
	G_ 1
	A_ 1
	B_ 1
	octave 4
	C_ 1
	D_ 2
	G_ 4
	D_ 2
	C_ 2
	octave 3
	B_ 2
	loopchannel 2, Music_PalletTown_Ch1_branch_2
	notetype 12, 3, 15
	octave 4
	C_ 4
	octave 3
	B_ 4
	A_ 4
	G_ 4
	F# 4
	D_ 4
	E_ 4
	notetype 12, 7, 2
	C_ 1
	E_ 1
	G_ 1
	octave 4
	C_ 1
	D_ 1
	A_ 1
	octave 5
	D_ 2
	notetype 12, 6, 2
	D_ 2
	notetype 12, 2, 2
	D_ 2
	notetype 12, 2, 15
	octave 3
	D_ 4
	E_ 4
	G_ 6
	A_ 1
	G_ 1
	notetype 12, 1, 15
	F# 8
	loopchannel 0, Music_PalletTown_Ch1_branch_1


Music_PalletTown_Ch2::
	vibrato 18, 4, 4
	duty 2

Music_PalletTown_Ch2_branch_1::
	notetype 12, 8, 8
	octave 1
	G_ 2
	B_ 2
	octave 2
	D_ 2
	G_ 6
	F# 4
	octave 1
	G_ 2
	B_ 2
	octave 2
	D_ 2
	G_ 6
	octave 1
	B_ 4
	octave 2
	C_ 2
	octave 1
	G_ 2
	B_ 2
	octave 2
	C_ 4
	D_ 2
	E_ 2
	F# 2
	G_ 2
	D_ 2
	rest 4
	D_ 4
	F# 4
	octave 1
	G_ 2
	B_ 2
	octave 2
	D_ 2
	G_ 6
	F# 4
	E_ 2
	D_ 2
	E_ 2
	octave 1
	B_ 4
	octave 2
	D_ 2
	E_ 2
	F# 2
	G_ 8
	A_ 8
	G_ 2
	D_ 2
	G_ 2
	octave 3
	D_ 4
	octave 2
	B_ 2
	octave 3
	C_ 2
	D_ 2

Music_PalletTown_Ch2_branch_2::
	notetype 12, 10, 2
	octave 3
	E_ 2
	octave 2
	C_ 2
	octave 3
	E_ 2
	octave 2
	C_ 2
	octave 3
	D# 2
	octave 2
	C_ 2
	octave 3
	D# 2
	octave 2
	C_ 2
	notetype 12, 9, 3
	G_ 6
	G_ 1
	G_ 3
	D_ 2
	G_ 4
	loopchannel 2, Music_PalletTown_Ch2_branch_2
	C_ 2
	octave 3
	E_ 4
	octave 2
	C_ 1
	octave 3
	C_ 3
	octave 2
	C_ 2
	E_ 2
	C_ 2
	D_ 2
	octave 3
	D_ 4
	octave 2
	D_ 1
	G_ 3
	E_ 2
	G_ 2
	E_ 2
	notetype 12, 1, 15
	F# 4
	notetype 12, 8, 8
	F# 4
	B_ 4
	G_ 4
	A_ 2
	D_ 2
	G_ 2
	D_ 4
	C_ 2
	octave 1
	B_ 2
	A_ 2
	loopchannel 0, Music_PalletTown_Ch2_branch_1


Music_PalletTown_Ch3::
	vibrato 20, 2, 4

Music_PalletTown_Ch3_branch_1::
	notetype 12, 1, 0
	octave 6
	D_ 2
	C_ 2
	octave 5
	B_ 2
	A_ 2
	octave 6
	G_ 2
	E_ 2
	F# 2
	E_ 2
	D_ 6
	octave 5
	B_ 2
	G_ 1
	rest 1
	G_ 1
	rest 1
	A_ 1
	rest 1
	B_ 1
	rest 1
	octave 6
	C_ 8
	rest 2
	octave 5
	F# 2
	G_ 2
	A_ 2
	B_ 6
	octave 6
	C_ 1
	octave 5
	B_ 1
	A_ 8
	octave 6
	D_ 2
	C_ 2
	octave 5
	B_ 2
	octave 6
	D_ 2
	G_ 1
	rest 1
	F# 1
	rest 1
	F# 1
	rest 1
	G_ 1
	rest 1
	E_ 6
	D_ 1
	rest 1
	D_ 8
	C_ 2
	octave 5
	B_ 2
	A_ 2
	G_ 2
	octave 6
	D_ 2
	C_ 2
	octave 5
	B_ 2
	A_ 2
	G_ 8
	rest 2
	G_ 2
	A_ 2
	B_ 2
	octave 6
	C_ 8
	D_ 6
	C_ 2
	octave 5
	B_ 8
	rest 2
	G_ 2
	A_ 2
	B_ 2
	octave 6
	C_ 2
	rest 2
	C_ 4
	D_ 6
	C_ 1
	D_ 1
	octave 5
	B_ 8
	rest 2
	B_ 2
	A_ 2
	G_ 2
	A_ 8
	E_ 4
	B_ 4
	A_ 8
	G_ 4
	E_ 4
	F# 7
	rest 1
	G_ 3
	rest 1
	B_ 3
	rest 1
	B_ 8
	A_ 8
	loopchannel 0, Music_PalletTown_Ch3_branch_1
