Music_TrainerBattle_Ch1::
	tempo 114
	volume 7, 7
	notetype 12, 11, 3
	vibrato 18, 2, 4
	duty 1
	rest 1
	octave 4
	A_ 1
	G# 1
	G_ 1
	G# 1
	G_ 1
	F# 1
	F_ 1
	F# 1
	F_ 1
	E_ 1
	D# 1
	E_ 1
	D# 1
	D_ 1
	C# 1
	D_ 1
	C# 1
	C_ 1
	octave 3
	B_ 1
	octave 4
	C_ 1
	octave 3
	B_ 1
	A# 1
	A_ 1
	A# 1
	A_ 1
	G# 1
	G_ 1
	G# 1
	G_ 1
	F# 1
	G_ 1
	duty 2
	notetype 12, 11, 1
	octave 4
	D# 2
	octave 2
	C_ 1
	rest 1
	C_ 1
	rest 1
	octave 4
	C_ 2
	octave 2
	C_ 1
	rest 1
	C_ 1
	rest 1
	octave 4
	D# 2
	rest 2
	octave 3
	A# 2
	octave 4
	C_ 2
	rest 2
	D# 2
	rest 2
	octave 3
	D# 1
	rest 1
	F_ 1
	rest 1
	F# 1
	rest 1
	octave 4
	C_ 2
	octave 2
	C_ 1
	rest 1
	C_ 1
	rest 1
	octave 4
	C_ 2
	octave 2
	C_ 1
	rest 1
	C_ 1
	rest 1
	octave 4
	D# 2
	rest 2
	octave 3
	A# 2
	octave 4
	C_ 2
	rest 2
	D# 2
	rest 2
	D# 1
	rest 1
	F_ 1
	rest 1
	G_ 1
	rest 1
	notetype 12, 11, 3
	D# 2
	rest 4
	F_ 2
	rest 4
	F# 2
	rest 2
	D# 2
	F_ 2
	rest 2
	F# 2
	rest 2
	D# 2
	F_ 2
	F# 2

Music_TrainerBattle_Ch1_branch_1::
	notetype 12, 11, 7
	D# 4
	rest 2
	C_ 10
	rest 4
	D# 2
	C_ 2
	octave 3
	G_ 1
	octave 4
	C_ 1
	D# 1
	rest 1
	C_ 1
	rest 1
	D# 1
	rest 1
	C# 8
	F_ 8
	G# 8
	octave 5
	C# 4
	C# 1
	octave 4
	G# 1
	F_ 1
	C# 1
	D# 4
	rest 2
	C_ 10
	rest 4
	D# 2
	C_ 2
	octave 3
	G_ 1
	octave 4
	C_ 1
	D# 1
	rest 1
	D_ 1
	rest 1
	F_ 1
	rest 1
	D# 6
	D_ 6
	C_ 2
	rest 2
	rest 2
	D_ 2
	rest 4
	F_ 2
	rest 2
	G# 2
	G_ 1
	F# 1
	octave 3
	G# 1
	F_ 1
	C_ 1
	G# 1
	octave 4
	C_ 1
	rest 1
	F_ 1
	rest 1
	C_ 1
	octave 3
	G# 1
	F_ 1
	rest 5
	octave 4
	D# 8
	D_ 4
	octave 3
	F_ 1
	A_ 1
	octave 4
	C_ 1
	D# 1
	D_ 4
	octave 3
	D_ 4
	octave 4
	F_ 4
	octave 3
	D_ 4
	rest 4
	D_ 4
	rest 4
	D_ 4
	G# 1
	F_ 1
	C_ 1
	G# 1
	octave 4
	C_ 1
	rest 1
	F_ 1
	rest 1
	C_ 1
	octave 3
	G# 1
	F_ 1
	rest 5
	octave 4
	D# 8
	D_ 4
	octave 3
	F_ 1
	A_ 1
	octave 4
	C_ 1
	D# 1
	D_ 4
	octave 3
	D_ 4
	rest 4
	D_ 4
	A# 1
	octave 4
	D_ 1
	F_ 1
	rest 1
	octave 3
	D_ 2
	octave 4
	F_ 2
	D_ 2
	octave 3
	A# 2
	D_ 2
	octave 4
	D_ 2
	notetype 12, 6, 7
	C_ 1
	C# 1
	D_ 1
	D# 1
	E_ 1
	D# 1
	D_ 1
	C# 1
	C_ 1
	rest 3
	D# 4
	notetype 6, 6, 7
	D# 1
	rest 1
	D# 1
	rest 1
	D# 1
	rest 7
	D# 1
	rest 1
	D# 1
	rest 1
	octave 3
	G_ 1
	rest 3
	G_ 1
	rest 3
	octave 4
	C_ 8
	notetype 6, 7, 7
	C# 2
	D_ 2
	D# 2
	E_ 2
	F_ 2
	E_ 2
	D# 2
	D_ 2
	C# 2
	rest 6
	E_ 8
	E_ 1
	rest 1
	E_ 1
	rest 1
	E_ 1
	rest 7
	E_ 1
	rest 1
	E_ 1
	rest 1
	octave 3
	G# 1
	rest 3
	G# 1
	rest 3
	octave 4
	C# 8
	notetype 6, 8, 7
	D_ 2
	D# 2
	E_ 2
	F_ 2
	F# 2
	F_ 2
	E_ 2
	D# 2
	D_ 2
	rest 6
	F_ 8
	F_ 1
	rest 1
	F_ 1
	rest 1
	F_ 1
	rest 7
	F_ 1
	rest 1
	F_ 1
	rest 1
	octave 3
	A_ 1
	rest 3
	A_ 1
	rest 3
	octave 4
	D_ 8
	notetype 6, 9, 7
	D# 2
	E_ 2
	F_ 2
	F# 2
	G_ 2
	F# 2
	F_ 2
	E_ 2
	D# 2
	rest 6
	F# 8
	notetype 6, 10, 7
	G# 8
	A# 8
	notetype 6, 11, 7
	octave 5
	D_ 8
	D_ 2
	rest 6
	octave 4
	A# 2
	F# 2
	D# 2
	octave 3
	A# 2
	octave 4
	F# 2
	D# 2
	octave 3
	A# 2
	F# 2
	octave 4
	G# 2
	rest 2
	D# 12
	notetype 6, 11, 1
	octave 6
	C_ 2
	C_ 2
	C_ 8
	C_ 2
	C_ 2
	C_ 4
	C_ 4
	C_ 4
	C_ 4
	notetype 6, 11, 7
	octave 4
	A# 2
	F# 2
	D# 2
	octave 3
	A# 2
	octave 4
	F# 2
	D# 2
	octave 3
	A# 2
	F# 2
	octave 4
	F# 2
	rest 2
	B_ 4
	A# 4
	G# 4
	F# 4
	F_ 4
	D# 4
	D_ 4
	D# 8
	F# 8
	octave 5
	C_ 8
	D# 8
	octave 4
	C# 16
	C# 2
	rest 2
	D# 2
	rest 2
	F_ 2
	rest 2
	octave 3
	G# 2
	rest 2
	octave 4
	F_ 2
	F# 2
	F_ 2
	D# 2
	F_ 2
	notetype 6, 6, 7
	E_ 1
	D_ 1
	C_ 1
	octave 3
	B_ 1
	A_ 1
	G_ 1
	notetype 6, 10, 1
	octave 4
	C# 2
	octave 2
	G_ 2
	G_ 2
	octave 4
	C# 2
	octave 2
	G_ 2
	G_ 2
	notetype 6, 11, 7
	octave 4
	D_ 4
	loopchannel 0, Music_TrainerBattle_Ch1_branch_1


Music_TrainerBattle_Ch2::
	vibrato 6, 3, 6
	duty 1
	notetype 12, 13, 1
	octave 4
	A# 4
	A# 4
	A# 4
	A# 4
	A# 4
	A# 4
	A# 4
	G_ 1
	G# 1
	G_ 1
	F# 1
	duty 3
	notetype 12, 6, 2

Music_TrainerBattle_Ch2_branch_1::
	octave 3
	G_ 1
	G# 1
	G_ 1
	F# 1
	loopchannel 14, Music_TrainerBattle_Ch2_branch_1
	G_ 1
	G# 1
	G_ 1
	F_ 1
	D# 1
	D_ 1
	C_ 1
	octave 2
	B_ 1
	notetype 12, 13, 7
	duty 2
	C_ 2
	octave 3
	C_ 1
	rest 1
	octave 2
	C_ 1
	rest 1
	octave 1
	A# 2
	octave 2
	A# 1
	rest 1
	octave 1
	A# 1
	rest 1
	A_ 2
	octave 2
	A_ 1
	rest 1
	octave 1
	A_ 1
	rest 1
	G# 2
	octave 2
	G# 1
	rest 1
	octave 1
	G# 1
	rest 1
	G_ 1
	B_ 1
	octave 2
	D_ 1
	F_ 1
	G_ 1
	B_ 1
	octave 3
	D_ 1
	F_ 1

Music_TrainerBattle_Ch2_branch_2::
	notetype 12, 13, 7
	octave 2
	C_ 1
	C_ 1
	octave 3
	C_ 1
	rest 1
	octave 2
	G_ 1
	rest 1
	octave 3
	C_ 1
	rest 1
	octave 2
	C_ 2
	B_ 1
	rest 1
	G_ 1
	rest 1
	B_ 1
	rest 1
	C_ 2
	A# 1
	rest 1
	G_ 1
	rest 1
	A# 1
	rest 1
	C_ 2
	A_ 1
	rest 1
	G# 1
	rest 1
	octave 3
	C_ 1
	rest 1
	octave 2
	C# 1
	C# 1
	G# 1
	rest 1
	octave 3
	C# 2
	octave 2
	C# 2
	G# 1
	rest 1
	octave 3
	C_ 2
	octave 2
	C# 2
	G# 1
	rest 1
	A# 2
	C# 1
	C# 1
	F_ 1
	rest 1
	G# 2
	octave 3
	C# 1
	rest 1
	F_ 2
	G# 1
	rest 1
	A# 2
	octave 2
	C_ 1
	C_ 1
	octave 3
	C_ 1
	rest 1
	octave 2
	G_ 1
	rest 1
	octave 3
	C_ 1
	rest 1
	octave 2
	C_ 2
	B_ 1
	rest 1
	G_ 1
	rest 1
	B_ 1
	rest 1
	C_ 2
	A# 1
	rest 1
	G_ 1
	rest 1
	A# 1
	rest 1
	C_ 2
	A_ 1
	rest 1
	F_ 1
	rest 1
	A_ 1
	rest 1
	octave 1
	A# 1
	A# 1
	octave 2
	F_ 1
	rest 1
	A# 2
	octave 1
	A# 2
	octave 2
	F_ 1
	rest 1
	A_ 2
	octave 1
	A# 2
	octave 2
	F_ 1
	rest 1
	G# 2
	octave 1
	A# 1
	A# 1
	octave 2
	F_ 1
	rest 1
	G_ 2
	A# 1
	rest 1
	octave 3
	D_ 2
	F_ 1
	rest 1
	A# 2
	octave 1
	F_ 2
	octave 2
	F_ 1
	rest 1
	C_ 1
	rest 1
	F_ 1
	rest 1
	octave 1
	F_ 2
	octave 2
	E_ 1
	rest 1
	C_ 1
	rest 1
	E_ 1
	rest 1
	octave 1
	F_ 2
	octave 2
	D# 1
	rest 1
	C_ 1
	rest 1
	D# 1
	rest 1
	octave 1
	F_ 2
	octave 2
	D_ 1
	rest 1
	D# 1
	C_ 1
	octave 1
	A# 1
	A_ 1
	A# 1
	rest 1
	A# 1
	rest 1
	octave 3
	F_ 4
	octave 1
	A# 1
	rest 1
	A# 1
	rest 1
	octave 3
	F# 4
	octave 1
	A# 1
	rest 1
	A# 1
	rest 1
	octave 3
	G_ 4
	octave 1
	A# 1
	rest 1
	A# 1
	rest 1
	octave 3
	G# 4
	octave 1
	F_ 2
	octave 2
	F_ 1
	rest 1
	C_ 1
	rest 1
	F_ 1
	rest 1
	octave 1
	F_ 2
	octave 2
	E_ 1
	rest 1
	C_ 1
	rest 1
	E_ 1
	rest 1
	octave 1
	F_ 2
	octave 2
	D# 1
	rest 1
	C_ 1
	rest 1
	D# 1
	rest 1
	octave 1
	F_ 2
	octave 2
	D_ 1
	rest 1
	D# 1
	C_ 1
	octave 1
	A# 1
	A_ 1
	A# 1
	rest 1
	A# 1
	rest 1
	octave 3
	F_ 4
	octave 1
	A# 1
	rest 1
	A# 1
	rest 1
	octave 3
	F# 4
	octave 1
	A# 1
	rest 1
	A# 1
	rest 1
	octave 3
	G_ 4
	octave 1
	A# 1
	rest 1
	A# 1
	rest 1
	octave 3
	G# 4
	vibrato 18, 2, 4
	notetype 12, 7, 8
	octave 4
	G_ 16
	notetype 12, 7, 7
	G_ 16
	notetype 6, 8, 8
	G# 16
	notetype 6, 8, 7
	G# 15
	G_ 1
	G# 7
	A_ 1
	A# 3
	A_ 1
	G# 8
	G_ 4
	F_ 6
	rest 2
	notetype 12, 9, 8
	A_ 16
	notetype 12, 9, 7
	A_ 16
	notetype 12, 10, 7
	A# 16
	notetype 12, 13, 7
	octave 5
	D_ 8
	F_ 8
	vibrato 4, 3, 6
	octave 2
	A# 4
	D# 4
	C_ 1
	rest 1
	notetype 12, 13, 8
	G# 6
	notetype 12, 13, 7
	G# 16
	A# 4
	D# 4
	D# 1
	rest 1
	octave 3
	D# 14
	octave 2
	C_ 1
	rest 1
	octave 3
	D# 2
	rest 2
	notetype 6, 13, 7
	octave 2
	C_ 1
	rest 1
	C_ 1
	rest 1
	C_ 2
	rest 2
	C_ 2
	rest 2
	octave 3
	G# 8
	octave 4
	F_ 2
	F# 2
	F_ 2
	D# 2
	F_ 2
	rest 2
	D# 2
	rest 2
	octave 3
	F_ 2
	rest 2
	F# 2
	rest 2
	G# 2
	rest 2
	C# 2
	rest 2
	G# 2
	A# 2
	G# 2
	F# 2
	G# 2
	notetype 6, 7, 2
	G_ 1
	F_ 1
	E_ 1
	D_ 1
	C_ 1
	octave 2
	B_ 1
	notetype 6, 12, 1
	octave 3
	B_ 2
	octave 1
	F# 1
	rest 1
	F# 1
	rest 1
	octave 3
	B_ 2
	octave 1
	F# 1
	rest 1
	F# 1
	rest 1
	notetype 6, 13, 7
	octave 3
	B_ 4
	loopchannel 0, Music_TrainerBattle_Ch2_branch_2


Music_TrainerBattle_Ch3::
	vibrato 18, 2, 3
	notetype 12, 1, 6
	octave 2
	A# 1
	octave 4
	A# 1
	octave 3
	A# 2
	octave 2
	A_ 1
	octave 4
	A_ 1
	octave 3
	A_ 2
	octave 2
	G# 1
	octave 4
	G# 1
	octave 3
	G# 2
	octave 2
	G_ 1
	octave 4
	G_ 1
	octave 3
	G_ 2
	octave 2
	F# 1
	octave 4
	F# 1
	octave 3
	F# 2
	octave 2
	F_ 1
	octave 4
	F_ 1
	octave 3
	F_ 2
	octave 2
	E_ 1
	octave 4
	E_ 1
	octave 3
	E_ 2
	D_ 1
	F_ 1
	B_ 1
	octave 4
	D_ 1
	notetype 12, 1, 8
	octave 6
	C_ 2
	octave 3
	C_ 1
	rest 1
	C_ 1
	rest 1
	octave 5
	F_ 2
	octave 3
	C_ 1
	rest 1
	C_ 1
	rest 1
	octave 5
	F# 2
	octave 4
	C_ 1
	D# 1
	octave 5
	D# 2
	F_ 2
	rest 2
	F# 2
	rest 2
	octave 4
	G_ 1
	rest 1
	A# 1
	rest 1
	B_ 1
	rest 1
	octave 5
	D# 2
	octave 3
	C_ 1
	rest 1
	C_ 1
	rest 1
	octave 5
	F_ 2
	octave 3
	C_ 1
	rest 1
	C_ 1
	rest 1
	octave 5
	F# 2
	octave 4
	C_ 1
	D# 1
	octave 5
	D# 2
	F_ 2
	rest 2
	F# 2
	rest 2
	G_ 1
	rest 1
	A# 1
	rest 1
	B_ 1
	rest 1
	octave 6
	C_ 2
	rest 4
	D_ 2
	rest 4
	D# 2
	rest 2
	C_ 2
	D_ 2
	rest 2
	D# 2
	rest 2
	octave 5
	G_ 2
	A# 2
	B_ 2

Music_TrainerBattle_Ch3_branch_1::
	notetype 12, 1, 4
	octave 6
	C_ 4
	notetype 6, 1, 4
	octave 5
	B_ 1
	A# 1
	A_ 1
	G# 1
	notetype 12, 1, 4
	G_ 10
	rest 2
	notetype 6, 1, 4
	G_ 1
	G# 1
	A_ 1
	A# 1
	octave 6
	C_ 6
	octave 5
	A_ 1
	G# 1
	G_ 8
	octave 6
	C_ 7
	octave 5
	B_ 1
	notetype 12, 1, 4
	octave 6
	C# 16
	C# 8
	F_ 4
	G# 1
	F_ 1
	C# 1
	octave 5
	G# 1
	octave 6
	C_ 4
	notetype 6, 1, 4
	octave 5
	B_ 1
	A# 1
	A_ 1
	G# 1
	notetype 12, 1, 4
	G_ 10
	rest 2
	notetype 6, 1, 4
	G_ 1
	G# 1
	A_ 1
	A# 1
	octave 6
	C_ 6
	octave 5
	A_ 1
	G# 1
	G_ 8
	octave 6
	C_ 7
	octave 5
	B_ 1
	A# 16
	A# 16
	A# 13
	B_ 1
	octave 6
	C_ 1
	C# 1
	D_ 8
	F_ 2
	D_ 2
	octave 5
	A# 2
	A_ 2
	notetype 12, 1, 0
	G# 11
	notetype 12, 1, 4
	C_ 1
	F_ 1
	rest 1
	G# 1
	rest 1
	notetype 12, 1, 0
	octave 6
	C_ 6
	notetype 6, 1, 0
	octave 5
	B_ 1
	A# 1
	A_ 1
	G# 1
	G# 16
	notetype 12, 1, 0
	A# 16
	notetype 12, 2, 6
	D_ 1
	octave 4
	A# 1
	F_ 1
	A# 1
	octave 5
	F_ 1
	D_ 1
	octave 4
	A# 1
	octave 5
	D_ 1
	A# 1
	F_ 1
	D_ 1
	F_ 1
	octave 6
	D_ 2
	C# 1
	C_ 1
	notetype 12, 1, 0
	octave 5
	G# 11
	notetype 12, 1, 4
	C_ 1
	F_ 1
	rest 1
	G# 1
	rest 1
	notetype 12, 1, 0
	octave 6
	C_ 7
	notetype 6, 1, 0
	C# 1
	D_ 1
	notetype 12, 1, 0
	D# 8
	D_ 12
	G# 1
	F_ 1
	notetype 12, 2, 6
	octave 5
	A# 1
	F_ 1
	G# 1
	G# 1
	G# 1
	rest 1
	A# 1
	rest 1
	G# 2
	G_ 2
	F_ 2
	D# 2
	F_ 2
	notetype 12, 2, 4
	octave 3
	G_ 1
	octave 4
	C_ 1
	octave 3
	D# 1
	octave 4
	C_ 1
	octave 3
	G_ 1
	octave 4
	C_ 1
	octave 3
	D# 1
	octave 4
	C_ 1
	octave 3
	G_ 1
	octave 4
	C_ 1
	octave 3
	D# 1
	octave 4
	C_ 1
	octave 3
	G_ 1
	octave 4
	C_ 1
	octave 3
	D# 1
	octave 4
	C_ 1
	octave 3
	G_ 1
	octave 4
	C_ 1
	octave 3
	D# 1
	octave 4
	C_ 1
	octave 3
	G_ 1
	octave 4
	C_ 1
	octave 3
	D# 1
	octave 4
	C_ 1
	octave 3
	G_ 1
	octave 4
	C_ 1
	octave 3
	D# 1
	octave 4
	C_ 1
	octave 3
	G_ 1
	octave 4
	C_ 1
	octave 3
	D# 1
	octave 4
	C_ 1
	octave 3
	G# 1
	octave 4
	C# 1
	octave 3
	E_ 1
	octave 4
	C# 1
	octave 3
	G# 1
	octave 4
	C# 1
	octave 3
	E_ 1
	octave 4
	C# 1
	octave 3
	G# 1
	octave 4
	C# 1
	octave 3
	E_ 1
	octave 4
	C# 1
	octave 3
	G# 1
	octave 4
	C# 1
	octave 3
	E_ 1
	octave 4
	C# 1
	octave 3
	G# 1
	octave 4
	C# 1
	octave 3
	E_ 1
	octave 4
	C# 1
	octave 3
	G# 1
	octave 4
	C# 1
	octave 3
	E_ 1
	octave 4
	C# 1
	octave 3
	G# 1
	octave 4
	C# 1
	octave 3
	E_ 1
	octave 4
	C# 1
	octave 3
	G# 1
	octave 4
	C# 1
	octave 3
	E_ 1
	octave 4
	C# 1
	notetype 12, 1, 4
	octave 3
	A_ 1
	octave 4
	D_ 1
	octave 3
	F_ 1
	octave 4
	D_ 1
	octave 3
	A_ 1
	octave 4
	D_ 1
	octave 3
	F_ 1
	octave 4
	D_ 1
	octave 3
	A_ 1
	octave 4
	D_ 1
	octave 3
	F_ 1
	octave 4
	D_ 1
	octave 3
	A_ 1
	octave 4
	D_ 1
	octave 3
	F_ 1
	octave 4
	D_ 1
	notetype 12, 1, 6
	octave 3
	A_ 1
	octave 4
	D_ 1
	octave 3
	F_ 1
	octave 4
	D_ 1
	octave 3
	A_ 1
	octave 4
	D_ 1
	octave 3
	F_ 1
	octave 4
	D_ 1
	octave 3
	A_ 1
	octave 4
	D_ 1
	octave 3
	F_ 1
	octave 4
	D_ 1
	octave 3
	A_ 1
	octave 4
	D_ 1
	octave 3
	F_ 1
	octave 4
	D_ 1
	notetype 12, 1, 6
	octave 3
	A# 1
	octave 4
	D# 1
	octave 3
	F# 1
	octave 4
	D# 1
	octave 3
	A# 1
	octave 4
	D# 1
	octave 3
	F# 1
	octave 4
	D# 1
	octave 3
	A# 1
	octave 4
	D# 1
	octave 3
	F# 1
	octave 4
	D# 1
	octave 3
	A# 1
	octave 4
	D# 1
	octave 3
	F# 1
	octave 4
	D# 1
	notetype 12, 1, 4
	octave 3
	F_ 1
	G# 1
	B_ 1
	octave 4
	D_ 1
	octave 3
	G# 1
	B_ 1
	octave 4
	D_ 1
	F_ 1
	octave 3
	B_ 1
	octave 4
	D_ 1
	F_ 1
	G# 1
	D_ 1
	F_ 1
	G# 1
	octave 5
	D_ 1
	octave 6
	D# 4
	octave 5
	A# 4
	octave 6
	C# 1
	rest 1
	C_ 6
	octave 4
	C_ 1
	D# 1
	G# 1
	octave 5
	C_ 1
	D# 1
	G# 1
	octave 6
	C_ 1
	D# 1
	G# 1
	D# 1
	C_ 1
	octave 5
	G# 1
	D# 1
	C_ 1
	octave 4
	G# 1
	D# 1
	octave 6
	D# 4
	octave 5
	A# 4
	B_ 1
	rest 1
	octave 6
	F# 12
	F_ 1
	F# 1
	G# 16
	F_ 8
	C# 1
	rest 1
	D# 1
	rest 1
	F_ 1
	rest 1
	octave 5
	G# 1
	rest 1
	octave 6
	F_ 1
	F# 1
	F_ 1
	D# 1
	F_ 1
	notetype 6, 2, 4
	E_ 1
	D_ 1
	C_ 1
	octave 5
	B_ 1
	A_ 1
	G_ 1
	notetype 6, 1, 4
	G_ 2
	octave 3
	G_ 1
	rest 1
	G_ 1
	rest 1
	octave 5
	G_ 2
	octave 3
	G_ 1
	rest 1
	G_ 1
	rest 1
	notetype 6, 1, 4
	octave 5
	G_ 4
	loopchannel 0, Music_TrainerBattle_Ch3_branch_1
