Music_WildBattle_Ch1::
	tempo 112
	volume 7, 7
	vibrato 18, 2, 3
	duty 2
	notetype 12, 11, 7
	rest 16
	octave 4
	A# 6
	A_ 1
	G# 1
	A_ 1
	G# 1
	G_ 1
	F# 1
	G# 1
	G_ 1
	F# 1
	F_ 1

Music_WildBattle_Ch1_branch_1::
	notetype 12, 11, 7
	callchannel Music_WildBattle_Ch1_branch_7
	octave 4
	F_ 4
	C# 4
	octave 3
	B_ 8
	callchannel Music_WildBattle_Ch1_branch_7
	rest 8
	G_ 1
	B_ 1
	octave 4
	C# 1
	octave 3
	B_ 1
	G_ 1
	B_ 1
	octave 4
	D_ 1
	D# 1
	notetype 12, 11, 1
	E_ 6
	C_ 6
	octave 3
	G_ 4
	octave 4
	E_ 6
	C_ 6
	E_ 4
	notetype 12, 11, 7
	F_ 1
	C# 1
	octave 3
	G# 1
	octave 4
	C_ 1
	C# 1
	octave 3
	G# 1
	F_ 1
	G_ 1
	G# 4
	F# 1
	G_ 1
	G# 1
	octave 4
	C_ 1
	C# 4
	octave 3
	F_ 1
	G# 1
	octave 4
	C# 1
	E_ 1
	F_ 3
	G_ 1
	G# 4
	notetype 12, 11, 1
	octave 3
	G_ 6
	F_ 6
	E_ 4
	G# 6
	G_ 6
	F_ 4
	octave 4
	C_ 6
	octave 3
	A# 6
	G_ 4
	notetype 8, 11, 7
	octave 2
	G_ 2
	octave 3
	C_ 2
	E_ 2
	C_ 2
	E_ 2
	G_ 2
	E_ 2
	G_ 2
	octave 4
	C_ 2
	octave 3
	G_ 2
	octave 4
	C_ 2
	E_ 2
	F_ 2
	C# 2
	octave 3
	G# 2
	octave 4
	C# 2
	octave 3
	G# 2
	F_ 2
	G# 2
	F_ 2
	C# 2
	F_ 2
	C# 2
	octave 2
	G# 2
	notetype 12, 11, 7
	octave 3
	G# 4
	octave 4
	C# 4
	notetype 12, 7, 1
	F_ 1
	F_ 1
	notetype 12, 9, 1
	F_ 1
	F_ 1
	notetype 12, 11, 1
	G# 1
	G# 1
	notetype 12, 13, 1
	G# 1
	G# 1
	notetype 12, 12, 7
	E_ 1
	D_ 1
	C# 1
	D_ 1
	E_ 12
	E_ 8
	notetype 12, 11, 1
	E_ 1
	D_ 1
	C_ 1
	octave 3
	A# 1
	A_ 1
	G_ 1
	F_ 1
	E_ 1
	notetype 12, 11, 7
	D_ 8
	F_ 8
	A# 8
	octave 4
	D_ 8
	octave 3
	G_ 8
	octave 4
	C_ 8
	E_ 8
	G_ 8
	rest 8
	octave 3
	D# 8
	G# 8
	octave 4
	C_ 8
	octave 3
	A# 8
	rest 8
	octave 4
	D_ 8
	octave 3
	G# 2
	F_ 2
	D_ 2
	F_ 2
	octave 4
	C_ 4
	rest 6
	C_ 1
	rest 5
	C# 2
	C_ 1
	rest 13
	C# 4
	rest 6
	C# 1
	rest 5
	F_ 2
	D# 1
	rest 5
	C# 8

Music_WildBattle_Ch1_branch_2::
	notetype 12, 11, 1
	octave 3
	C_ 1
	D# 1
	D_ 1
	C# 1
	loopchannel 8, Music_WildBattle_Ch1_branch_2

Music_WildBattle_Ch1_branch_3::
	C# 1
	F_ 1
	E_ 1
	D# 1
	loopchannel 8, Music_WildBattle_Ch1_branch_3

Music_WildBattle_Ch1_branch_4::
	C_ 1
	D# 1
	D_ 1
	C# 1
	loopchannel 16, Music_WildBattle_Ch1_branch_4

Music_WildBattle_Ch1_branch_5::
	C# 1
	E_ 1
	D# 1
	D_ 1
	loopchannel 8, Music_WildBattle_Ch1_branch_5

Music_WildBattle_Ch1_branch_6::
	C_ 1
	D# 1
	D_ 1
	C# 1
	loopchannel 8, Music_WildBattle_Ch1_branch_6
	loopchannel 0, Music_WildBattle_Ch1_branch_1

Music_WildBattle_Ch1_branch_7::
	octave 4
	C_ 1
	rest 5
	octave 3
	B_ 1
	rest 5
	A# 1
	rest 3
	rest 10
	octave 4
	C_ 2
	rest 2
	D# 2
	C# 1
	rest 5
	C_ 1
	rest 5
	octave 3
	B_ 1
	rest 3
	endchannel


Music_WildBattle_Ch2::
	duty 1
	vibrato 18, 2, 3
	notetype 12, 11, 1
	octave 4
	G_ 1
	F# 1
	F_ 1
	E_ 1
	G_ 1
	F# 1
	F_ 1
	E_ 1
	G_ 1
	F# 1
	F_ 1
	E_ 1
	G_ 1
	F# 1
	F_ 1
	E_ 1
	G_ 1
	F# 1
	F_ 1
	E_ 1
	F# 1
	F_ 1
	E_ 1
	D# 1
	F_ 1
	E_ 1
	D# 1
	D_ 1
	E_ 1
	D# 1
	D_ 1
	C# 1

Music_WildBattle_Ch2_branch_1::
	notetype 12, 11, 7
	callchannel Music_WildBattle_Ch2_branch_4
	octave 2
	F_ 2
	octave 1
	B_ 1
	rest 1
	octave 2
	G_ 2
	callchannel Music_WildBattle_Ch2_branch_4
	octave 2
	G_ 1
	rest 1
	octave 1
	B_ 1
	rest 1
	octave 2
	F_ 1
	F# 1
	notetype 6, 11, 7

Music_WildBattle_Ch2_branch_2::
	octave 2
	C_ 2
	rest 4
	C_ 1
	rest 1
	C_ 2
	octave 3
	C_ 2
	octave 2
	C_ 4
	rest 2
	C_ 2
	rest 2
	C_ 2
	octave 3
	C_ 2
	rest 2
	octave 2
	C_ 4
	loopchannel 12, Music_WildBattle_Ch2_branch_2

	rest 16
	octave 3
	A# 16
	octave 4
	D_ 16
	F_ 16
	notetype 12, 11, 7
	E_ 16
	G_ 8
	octave 5
	C_ 8
	rest 8
	octave 3
	G# 8
	octave 4
	C_ 8
	D# 8
	F_ 8
	F_ 1
	octave 3
	A# 1
	G# 1
	A# 1
	octave 4
	F_ 1
	octave 3
	A# 1
	G# 1
	A# 1
	octave 4
	G# 8
	G# 1
	F_ 1
	D_ 1
	octave 3
	B_ 1
	octave 4
	F_ 1
	D_ 1
	octave 3
	B_ 1
	G# 1
	notetype 6, 11, 7

Music_WildBattle_Ch2_branch_3::
	octave 2
	C_ 2
	rest 4
	C_ 2
	rest 4
	octave 1
	G_ 1
	rest 1
	G_ 1
	rest 1
	octave 2
	E_ 2
	rest 2
	E_ 2
	rest 2
	E_ 2
	C_ 6
	C_ 2
	rest 4
	C_ 2
	octave 1
	G_ 2
	octave 2
	E_ 2
	C_ 2
	octave 1
	G_ 2
	octave 2
	C_ 2
	rest 4
	C_ 2
	E_ 2
	G_ 2
	B_ 2
	octave 3
	C_ 2
	loopchannel 2, Music_WildBattle_Ch2_branch_3
	callchannel Music_WildBattle_Ch2_branch_5
	C_ 2
	rest 2
	octave 3
	G_ 4
	octave 2
	C_ 2
	rest 2
	C_ 2
	rest 2
	octave 4
	C_ 4
	octave 2
	C_ 2
	rest 2
	octave 4
	D# 4
	octave 2
	C_ 2
	rest 2
	octave 4
	C# 4
	octave 2
	C# 2
	rest 2
	C# 2
	rest 2
	octave 4
	C# 4
	octave 2
	C# 2
	rest 2
	C# 2
	rest 2
	octave 4
	C# 4
	octave 2
	C# 2
	rest 2
	C# 2
	rest 2
	octave 4
	C# 4
	octave 2
	C# 2
	rest 2
	C# 2
	rest 2
	octave 4
	C# 4
	octave 2
	C# 2
	rest 2
	octave 4
	F_ 4
	octave 2
	C# 2
	rest 2
	callchannel Music_WildBattle_Ch2_branch_5
	callchannel Music_WildBattle_Ch2_branch_6
	callchannel Music_WildBattle_Ch2_branch_5
	callchannel Music_WildBattle_Ch2_branch_6
	callchannel Music_WildBattle_Ch2_branch_5
	C# 2
	rest 2
	octave 3
	G# 4
	octave 2
	C# 2
	rest 2
	C# 2
	rest 2
	octave 4
	C# 4
	octave 2
	C# 2
	rest 2
	octave 3
	A# 4
	octave 2
	C# 2
	rest 2
	callchannel Music_WildBattle_Ch2_branch_5
	C_ 2
	rest 2
	octave 3
	G_ 4
	octave 2
	C_ 2
	rest 2
	C_ 2
	rest 2
	octave 4
	C_ 4
	octave 2
	C_ 2
	rest 2
	octave 3
	A# 4
	octave 2
	C_ 2
	rest 2
	loopchannel 0, Music_WildBattle_Ch2_branch_1

Music_WildBattle_Ch2_branch_4::
	octave 2
	C_ 1
	rest 2
	C_ 1
	octave 1
	G_ 1
	rest 1
	octave 2
	C_ 1
	rest 1
	octave 3
	C_ 2
	octave 2
	C_ 1
	rest 1
	octave 1
	G_ 1
	rest 2
	G_ 1
	octave 2
	C_ 3
	C_ 1
	octave 1
	G_ 2
	octave 2
	C_ 2
	octave 1
	G_ 2
	octave 2
	F# 2
	octave 1
	G_ 2
	octave 2
	G_ 2
	C# 1
	rest 2
	C# 1
	octave 1
	G# 1
	rest 1
	octave 2
	C# 1
	rest 1
	octave 3
	C# 1
	rest 1
	octave 2
	C# 2
	octave 1
	G# 1
	rest 2
	G# 1
	octave 2
	C# 1
	rest 2
	C# 1
	octave 1
	G# 1
	rest 1
	octave 2
	C# 1
	rest 1
	octave 1
	G_ 2
	endchannel

Music_WildBattle_Ch2_branch_5::
	octave 3
	G_ 4
	octave 2
	C_ 2
	rest 2
	C_ 2
	rest 2
	octave 3
	G_ 4
	octave 2
	C_ 2
	rest 2
	C_ 2
	rest 2
	octave 3
	G_ 4
	octave 2
	C_ 2
	rest 2
	endchannel

Music_WildBattle_Ch2_branch_6::
	C_ 2
	rest 2
	octave 3
	G_ 4
	octave 2
	C_ 2
	rest 2
	C_ 2
	rest 2
	octave 3
	G_ 4
	octave 2
	C_ 2
	rest 2
	octave 3
	G_ 4
	octave 2
	C_ 2
	rest 2
	endchannel


Music_WildBattle_Ch3::
	vibrato 20, 2, 3
	notetype 12, 1, 4
	octave 3
	C_ 1
	rest 1
	C_ 1
	octave 4
	C_ 1
	octave 3
	C# 1
	rest 1
	C# 1
	octave 4
	C# 1
	octave 3
	D_ 1
	rest 1
	D_ 1
	octave 4
	D_ 1
	octave 3
	D# 1
	rest 1
	D# 1
	octave 4
	D# 1
	octave 3
	E_ 1
	rest 1
	E_ 1
	octave 4
	E_ 1
	octave 3
	F_ 1
	rest 1
	F_ 1
	octave 4
	F_ 1
	octave 3
	F# 1
	rest 1
	F# 1
	octave 4
	F# 1
	octave 3
	G_ 1
	rest 1
	G_ 1
	octave 4
	G_ 1

Music_WildBattle_Ch3_branch_1::
	notetype 12, 1, 4
	octave 5
	G_ 1
	rest 2
	octave 4
	G_ 1
	rest 2
	octave 5
	G_ 1
	rest 3
	octave 4
	G_ 1
	rest 1
	octave 5
	G_ 1
	rest 2
	octave 4
	G_ 1
	octave 3
	G_ 1
	B_ 1
	octave 4
	C_ 1
	D_ 1
	D# 6
	octave 5
	D# 2
	rest 2
	G_ 2
	G# 1
	rest 2
	octave 4
	G# 1
	rest 2
	octave 5
	G# 1
	rest 3
	octave 4
	G# 1
	rest 1
	octave 5
	G# 1
	rest 2
	octave 4
	G# 1
	octave 6
	C# 6
	octave 5
	G# 1
	F_ 1
	B_ 1
	G_ 1
	F_ 1
	D_ 1
	G_ 1
	F_ 1
	D_ 1
	octave 4
	B_ 1
	octave 5
	G_ 1
	rest 2
	octave 4
	G_ 1
	rest 2
	octave 5
	G_ 1
	rest 3
	octave 4
	G_ 1
	rest 1
	octave 5
	G_ 1
	rest 2
	octave 4
	G_ 1
	C_ 1
	D_ 1
	D# 1
	F_ 1
	G_ 6
	octave 5
	D# 2
	rest 2
	G_ 2
	G# 1
	rest 2
	octave 4
	G_ 1
	rest 2
	octave 5
	G# 1
	rest 3
	octave 4
	G_ 1
	rest 1
	octave 5
	G# 1
	rest 2
	octave 4
	G_ 1
	C# 4
	G# 4
	octave 5
	F_ 7
	F# 1
	G_ 2
	notetype 12, 2, 4
	C_ 1
	octave 4
	G_ 1
	octave 5
	C_ 1
	octave 4
	G_ 1
	notetype 12, 1, 4
	octave 5
	F# 2
	notetype 12, 2, 4
	C_ 1
	octave 4
	G_ 1
	octave 5
	C_ 1
	octave 4
	G_ 1
	notetype 12, 1, 4
	octave 5
	E_ 2
	notetype 12, 2, 4
	C_ 1
	octave 4
	G_ 1
	notetype 12, 1, 4
	octave 5
	G_ 2
	notetype 12, 2, 4
	C_ 1
	octave 4
	G_ 1
	octave 5
	C_ 1
	octave 4
	G_ 1
	notetype 12, 1, 4
	octave 5
	A_ 2
	notetype 12, 2, 4
	C_ 1
	octave 4
	G_ 1
	octave 5
	C_ 1
	octave 4
	G_ 1
	notetype 12, 1, 4
	octave 5
	G_ 2
	notetype 12, 2, 4
	C_ 1
	octave 4
	G# 1
	notetype 12, 1, 4
	octave 5
	G# 12
	G_ 2
	F_ 2
	G# 2
	G_ 2
	C# 1
	F_ 1
	G# 1
	octave 6
	C_ 1
	C# 8
	octave 5
	C_ 2
	notetype 12, 2, 4
	octave 4
	E_ 1
	G_ 1
	E_ 1
	G_ 1
	notetype 12, 1, 4
	A# 2
	notetype 12, 2, 4
	E_ 1
	G_ 1
	E_ 1
	G_ 1
	notetype 12, 1, 4
	G# 2
	notetype 12, 2, 4
	E_ 1
	G_ 1
	notetype 12, 1, 4
	octave 5
	C# 2
	notetype 12, 2, 4
	octave 4
	E_ 1
	G_ 1
	E_ 1
	G_ 1
	notetype 12, 1, 4
	octave 5
	C_ 2
	notetype 12, 2, 4
	octave 4
	E_ 1
	G_ 1
	E_ 1
	G_ 1
	notetype 12, 1, 4
	A# 2
	notetype 12, 2, 4
	E_ 1
	G_ 1
	notetype 12, 1, 4
	octave 5
	F_ 2
	notetype 12, 2, 4
	octave 4
	G_ 1
	octave 5
	C_ 1
	octave 4
	G_ 1
	octave 5
	C_ 1
	notetype 12, 1, 4
	E_ 2
	notetype 12, 2, 4
	octave 4
	G_ 1
	octave 5
	C_ 1
	octave 4
	G_ 1
	octave 5
	C_ 1
	notetype 12, 1, 4
	D_ 2
	notetype 12, 2, 4
	octave 4
	G_ 1
	octave 5
	C_ 1
	notetype 12, 1, 4
	octave 4
	A# 4
	octave 5
	C_ 4
	D_ 4
	F_ 4
	G# 16
	notetype 6, 1, 4
	G# 1
	rest 1
	notetype 6, 2, 4
	G# 1
	rest 1
	notetype 6, 3, 4
	G# 1
	rest 1
	G# 1
	rest 1
	G# 1
	rest 1
	G# 1
	rest 1
	notetype 6, 2, 4
	G# 1
	rest 1
	G# 1
	rest 1
	G# 1
	rest 1
	G# 1
	rest 1
	notetype 6, 1, 4
	G# 1
	rest 1
	G# 1
	rest 1
	octave 6
	C# 1
	rest 1
	C# 1
	rest 1
	C# 1
	rest 1
	C# 1
	rest 1
	octave 5
	G_ 2
	F_ 2
	E_ 2
	F_ 2
	notetype 12, 1, 6
	G_ 12
	G_ 8
	notetype 6, 1, 6
	G_ 1
	rest 1
	G_ 1
	rest 1
	G_ 1
	rest 1
	G_ 1
	rest 1
	notetype 6, 2, 4
	G_ 1
	rest 1
	G_ 1
	rest 1
	notetype 6, 1, 4
	G_ 1
	rest 1
	G_ 1
	rest 1
	notetype 12, 1, 4
	octave 2
	A# 16
	A# 1
	rest 2
	A# 1
	rest 2
	A# 1
	rest 1
	octave 3
	A# 1
	rest 2
	A# 1
	rest 2
	A# 1
	rest 1
	C_ 1
	rest 2
	notetype 6, 1, 6
	C_ 1
	rest 1
	C_ 2
	octave 4
	C_ 2
	octave 3
	C_ 4
	rest 2
	C_ 2
	rest 2
	C_ 2
	octave 4
	C_ 2
	rest 2
	octave 3
	C_ 4
	C_ 2
	rest 4
	C_ 1
	rest 1
	C_ 2
	octave 4
	C_ 2
	octave 3
	C_ 4
	rest 2
	C_ 2
	rest 2
	C_ 2
	octave 2
	A# 2
	rest 2
	A# 2
	rest 2
	notetype 12, 1, 4
	G# 16
	G# 16
	A# 2
	rest 2
	A# 1
	rest 3
	A# 1
	rest 1
	octave 3
	A# 1
	rest 1
	octave 2
	A# 1
	rest 1
	octave 3
	A# 1
	rest 1
	D_ 2
	rest 2
	D_ 1
	rest 3
	D_ 1
	rest 1
	octave 4
	D_ 1
	rest 1
	octave 2
	B_ 1
	rest 1
	octave 3
	B_ 1
	rest 1
	octave 5
	E_ 4
	octave 4
	C_ 1
	E_ 1
	G_ 1
	B_ 1
	octave 5
	C_ 1
	rest 1
	E_ 1
	rest 5
	F_ 2
	E_ 1
	rest 1
	octave 4
	C_ 1
	octave 3
	G_ 1
	octave 4
	C_ 1
	E_ 1
	G_ 1
	E_ 1
	C_ 1
	E_ 1
	G_ 1
	octave 5
	C_ 1
	E_ 1
	G_ 1
	F_ 4
	octave 4
	C# 1
	F_ 1
	G# 1
	octave 5
	C_ 1
	C# 1
	rest 1
	F_ 1
	rest 5
	G# 2
	G_ 1
	rest 5
	F_ 8
	notetype 12, 1, 3
	G_ 6
	F# 6
	E_ 2
	rest 2
	G_ 6
	A_ 6
	G_ 2
	rest 2
	G# 12
	G_ 2
	F_ 2
	G# 2
	G_ 2
	rest 4
	octave 6
	C# 8
	octave 5
	C_ 6
	octave 4
	A# 6
	G# 2
	rest 2
	octave 5
	C# 6
	C_ 6
	octave 4
	A# 2
	rest 2
	octave 5
	F_ 6
	E_ 6
	D_ 2
	rest 2
	octave 4
	A# 4
	octave 5
	C_ 4
	D_ 4
	F_ 4
	G# 16
	G# 16
	G_ 16
	G_ 16
	loopchannel 0, Music_WildBattle_Ch3_branch_1
