Music_GymLeaderBattle_Ch1:
	tempo 0, 101
	stereopanning 119
	duty 3
	vibrato 18, 1, 5
	notetype 12, 11, 2
	octave 3
	note A#, 1
	note A_, 1
	note G#, 1
	note G_, 1
	note G#, 1
	note G_, 1
	note F#, 1
	note G_, 1
	note F#, 1
	note F_, 1
	note F#, 1
	note F_, 1
	note E_, 1
	note F_, 1
	note E_, 1
	note D#, 1
	note E_, 1
	note D#, 1
	note D_, 1
	note D#, 1
	note D_, 1
	note C#, 1
	note D_, 1
	note C#, 1
	note C_, 1
	note C#, 1
	note C_, 1
	octave 2
	note B_, 1
	octave 3
	note C_, 1
	octave 2
	note B_, 1
	note A#, 1
	note B_, 1
	note A#, 2
	note A#, 6
	note A#, 2
	note A#, 6
	note A#, 2
	note A#, 8
	notetype 12, 11, 7
	note B_, 2
	notetype 12, 11, 2
	note A#, 2
	note A#, 6
	note A#, 2
	note A#, 6
	note A#, 2
	note A#, 8
	notetype 12, 11, 7
	octave 3
	note E_, 2
	notetype 12, 11, 2
	octave 2
	note A#, 2
	note A#, 6
	note A#, 2
	note A#, 6
	note A#, 2
	note A#, 8
	notetype 12, 11, 7
	note B_, 2
	notetype 12, 11, 2
	note A#, 2
	note A#, 6
	note A#, 2
	note A#, 6
	note A#, 2
	notetype 12, 11, 4
	octave 3
	note E_, 4
	note E_, 4
	note E_, 2

Music_GymLeaderBattle_Ch1_branch_1:
	callchannel Music_GymLeaderBattle_Ch1_branch_2
	octave 2
	note A#, 2
	notetype 12, 11, 7
	note G#, 8
	note B_, 8
	octave 3
	note D#, 10
	note E_, 6
	callchannel Music_GymLeaderBattle_Ch1_branch_2
	note D#, 2
	notetype 12, 11, 7
	note C#, 8
	octave 2
	note B_, 8
	note G#, 10
	octave 3
	note E_, 6
	notetype 12, 11, 2
	note D#, 2
	note D#, 2
	note G_, 1
	note E_, 1
	note D#, 1
	note G_, 1
	note D#, 2
	note D#, 2
	note A#, 1
	note G#, 1
	note E_, 1
	note A#, 1
	note D#, 2
	note D#, 2
	note B_, 1
	note A#, 1
	note G#, 1
	note B_, 1
	note D#, 2
	notetype 12, 11, 7
	note E_, 2
	notetype 12, 11, 2
	note D#, 2
	note D#, 2
	note G_, 1
	note E_, 1
	note D#, 1
	note G_, 1
	note D#, 2
	note D#, 2
	note A#, 1
	note G#, 1
	note E_, 1
	note A#, 1
	note D#, 2
	note D#, 2
	note B_, 1
	note A#, 1
	note G#, 1
	note B_, 1
	note G#, 2
	notetype 12, 11, 5
	note B_, 2
	note D#, 2
	note C#, 2
	octave 2
	note A#, 4
	note D#, 2
	note G#, 2
	note B_, 2
	octave 3
	note E_, 2
	note D#, 4
	note C#, 2
	octave 2
	note A#, 2
	note A#, 2
	note D#, 2
	note A#, 2
	octave 3
	note C#, 2
	notetype 12, 11, 7
	octave 2
	note B_, 8
	note A#, 8
	note G#, 10
	note B_, 6
	notetype 12, 11, 5
	octave 3
	note D#, 2
	note C#, 2
	octave 2
	note A#, 4
	note D#, 2
	note G#, 2
	note B_, 2
	octave 3
	note E_, 2
	note D#, 4
	note C#, 2
	octave 2
	note A#, 2
	note A#, 2
	note G#, 2
	note A#, 2
	octave 3
	note C#, 2
	notetype 12, 11, 7
	note E_, 8
	note F#, 8
	note G_, 16
	notetype 12, 11, 2
	octave 2
	note G#, 2
	note G#, 2
	notetype 12, 11, 7
	octave 3
	note C#, 12
	notetype 12, 11, 2
	note G#, 2
	note F_, 4
	notetype 12, 11, 5
	octave 2
	note F_, 4
	note G_, 2
	note G#, 2
	note A#, 2
	notetype 12, 11, 2
	note A#, 2
	note A#, 2
	notetype 12, 11, 7
	octave 3
	note D#, 12
	notetype 12, 11, 2
	note A#, 2
	note G_, 4
	notetype 12, 11, 7
	octave 4
	note D#, 6
	notetype 12, 4, 12
	octave 3
	note D_, 4
	loopchannel 0, Music_GymLeaderBattle_Ch1_branch_1

Music_GymLeaderBattle_Ch1_branch_2:
	notetype 12, 11, 5
	note D#, 2
	octave 2
	note A#, 2
	octave 3
	note D#, 2
	note E_, 4
	note D#, 2
	note C#, 2
	octave 2
	note A#, 2
	note D#, 2
	note G#, 2
	note A#, 2
	octave 3
	note D#, 2
	note E_, 2
	note D#, 2
	note C#, 2
	endchannel


Music_GymLeaderBattle_Ch2:
	duty 3
	vibrato 8, 3, 6
	notetype 12, 12, 2

Music_GymLeaderBattle_Ch2_branch_1:
	octave 4
	note A#, 1
	note G#, 1
	note A#, 1
	octave 5
	note D#, 1
	loopchannel 8, Music_GymLeaderBattle_Ch2_branch_1
	octave 3

Music_GymLeaderBattle_Ch2_branch_2:
	notetype 12, 12, 2
	note D#, 2
	note D#, 2
	note F#, 1
	note E_, 1
	note D#, 1
	note F#, 1
	note D#, 2
	note D#, 2
	note A#, 1
	note G#, 1
	note F#, 1
	note A#, 1
	note D#, 2
	note D#, 2
	note B_, 1
	note A#, 1
	note G#, 1
	note B_, 1
	note D_, 2
	notetype 12, 12, 7
	note E_, 2
	notetype 12, 12, 2
	note D#, 2
	note D#, 2
	note F#, 1
	note E_, 1
	note D#, 1
	note F#, 1
	note D#, 2
	note D#, 2
	note A#, 1
	note G#, 1
	note F#, 1
	note A#, 1
	note D#, 2
	note D#, 2
	note B_, 1
	note A#, 1
	note G#, 1
	note B_, 1
	note G#, 2
	notetype 12, 12, 7
	note B_, 2
	notetype 12, 12, 2
	octave 4
	loopchannel 2, Music_GymLeaderBattle_Ch2_branch_2

Music_GymLeaderBattle_Ch2_branch_3:
	callchannel Music_GymLeaderBattle_Ch2_branch_4
	note E_, 8
	note G#, 8
	note B_, 10
	note G#, 6
	callchannel Music_GymLeaderBattle_Ch2_branch_4
	note E_, 8
	note G#, 8
	note B_, 10
	octave 4
	note E_, 6
	note D#, 8
	notetype 12, 11, 7
	note D#, 8
	notetype 12, 10, 2
	rest 6
	octave 5
	note E_, 4
	note E_, 4
	note E_, 2
	notetype 12, 10, 0
	note D#, 8
	notetype 12, 10, 7
	note D#, 8
	rest 12
	notetype 12, 12, 5
	octave 3
	note A#, 4
	note B_, 4
	note G#, 4
	note A#, 4
	note B_, 4
	note G#, 4
	note E_, 4
	notetype 12, 11, 0
	note D#, 8
	note D#, 16
	notetype 12, 11, 7
	note D#, 12
	notetype 12, 12, 5
	note A#, 4
	note B_, 4
	note G#, 4
	note A#, 4
	note B_, 4
	note G#, 4
	note B_, 4
	notetype 12, 11, 0
	note A#, 8
	notetype 12, 11, 7
	note A#, 8
	notetype 12, 11, 0
	octave 4
	note D#, 8
	notetype 12, 11, 7
	note D#, 8
	notetype 12, 12, 2
	octave 3
	note C#, 2
	note C#, 2
	notetype 12, 12, 7
	note F_, 8
	notetype 12, 12, 2
	octave 4
	note C#, 4
	note F_, 2
	note C#, 4
	notetype 12, 12, 7
	note G#, 4
	note G_, 2
	note F_, 2
	note D#, 2
	notetype 12, 12, 2
	octave 3
	note D#, 2
	note D#, 2
	notetype 12, 12, 7
	note G_, 8
	notetype 12, 12, 2
	octave 4
	note D#, 4
	note G_, 2
	note D#, 4
	notetype 12, 12, 7
	note A#, 6
	octave 3
	note A_, 4
	loopchannel 0, Music_GymLeaderBattle_Ch2_branch_3

Music_GymLeaderBattle_Ch2_branch_4:
	duty 2
	notetype 12, 13, 1
	octave 3
	note A#, 2
	notetype 12, 10, 2
	note A#, 2
	notetype 12, 13, 1
	note G#, 2
	notetype 12, 10, 2
	note G#, 2
	notetype 12, 13, 1
	note A#, 2
	notetype 12, 10, 2
	note A#, 2
	notetype 12, 12, 5
	note B_, 2
	octave 4
	note C#, 2
	note C#, 2
	octave 3
	note B_, 4
	note A#, 2
	note G#, 2
	note F#, 2
	note G#, 2
	note A#, 2
	duty 3
	notetype 12, 11, 0
	endchannel


Music_GymLeaderBattle_Ch3:
	notetype 12, 1, 8
	octave 2
	note E_, 1
	rest 1

Music_GymLeaderBattle_Ch3_branch_1:
	note B_, 3
	rest 1
	loopchannel 6, Music_GymLeaderBattle_Ch3_branch_1
	note B_, 2
	note G#, 2
	note B_, 2

Music_GymLeaderBattle_Ch3_branch_2:
	note D#, 1
	rest 1
	note D#, 1
	rest 1
	note F#, 4
	note D#, 1
	rest 1
	note D#, 1
	rest 1
	note A#, 4
	note D#, 1
	rest 1
	note D#, 1
	rest 1
	note B_, 4
	note D_, 1
	rest 1
	note F_, 2
	note D#, 1
	rest 1
	note D#, 1
	rest 1
	note F#, 4
	note D#, 1
	rest 1
	note D#, 1
	rest 1
	note A#, 4
	note D#, 1
	rest 1
	note D#, 1
	rest 1
	note B_, 4
	note D#, 1
	rest 1
	note E_, 2
	loopchannel 2, Music_GymLeaderBattle_Ch3_branch_2

Music_GymLeaderBattle_Ch3_branch_3:
	octave 2
	note D#, 2
	note A#, 2
	loopchannel 8, Music_GymLeaderBattle_Ch3_branch_3

Music_GymLeaderBattle_Ch3_branch_4:
	note E_, 2
	note B_, 2
	loopchannel 4, Music_GymLeaderBattle_Ch3_branch_4
	octave 1
	note B_, 2
	octave 2
	note E_, 2
	octave 1
	note B_, 2
	octave 2
	note E_, 4
	note B_, 2
	octave 3
	note E_, 2
	octave 2
	note B_, 2

Music_GymLeaderBattle_Ch3_branch_5:
	octave 2
	note F#, 2
	octave 3
	note C#, 2
	loopchannel 8, Music_GymLeaderBattle_Ch3_branch_5

Music_GymLeaderBattle_Ch3_branch_6:
	octave 2
	note E_, 2
	note B_, 2
	loopchannel 7, Music_GymLeaderBattle_Ch3_branch_6
	octave 3
	note E_, 2
	octave 2
	note B_, 2

Music_GymLeaderBattle_Ch3_branch_7:
	note D#, 1
	rest 1
	note D#, 1
	rest 1
	note A#, 4
	note D#, 1
	rest 1
	note D#, 1
	rest 1
	note B_, 4
	note D#, 1
	rest 1
	note D#, 1
	rest 1
	note A#, 4
	note D#, 1
	rest 1
	note E_, 2
	loopchannel 2, Music_GymLeaderBattle_Ch3_branch_7

Music_GymLeaderBattle_Ch3_branch_8:
	note D#, 2
	note A#, 2
	loopchannel 7, Music_GymLeaderBattle_Ch3_branch_8
	octave 3
	note C#, 2
	octave 2
	note A#, 2
	note E_, 2
	note B_, 2
	octave 3
	note E_, 2
	octave 2
	note E_, 2
	note B_, 2
	octave 3
	note E_, 2

Music_GymLeaderBattle_Ch3_branch_9:
	octave 2
	note E_, 2
	note B_, 2
	loopchannel 5, Music_GymLeaderBattle_Ch3_branch_9

Music_GymLeaderBattle_Ch3_branch_10:
	octave 2
	note F#, 2
	octave 3
	note C#, 2
	loopchannel 7, Music_GymLeaderBattle_Ch3_branch_10
	octave 2
	note A#, 2
	octave 3
	note C#, 2
	octave 2
	note E_, 2
	note A#, 2
	octave 3
	note E_, 2
	note F#, 2
	note G#, 2
	note F#, 2
	note E_, 2
	note C#, 2

Music_GymLeaderBattle_Ch3_branch_11:
	octave 2
	note D#, 2
	note A#, 2
	loopchannel 4, Music_GymLeaderBattle_Ch3_branch_11

Music_GymLeaderBattle_Ch3_branch_12:
	note C#, 2
	note G#, 2
	loopchannel 8, Music_GymLeaderBattle_Ch3_branch_12

Music_GymLeaderBattle_Ch3_branch_13:
	note D#, 2
	note A#, 2
	loopchannel 4, Music_GymLeaderBattle_Ch3_branch_13
	octave 3
	note D#, 2
	octave 2
	note A#, 2
	note D#, 2
	note D_, 2
	note D_, 2
	note A#, 2
	octave 3
	note D#, 2
	note F_, 2
	loopchannel 0, Music_GymLeaderBattle_Ch3_branch_3
